<?xml version="1.0" encoding="UTF-8" standalone="no"?>
<!-- Generator: Adobe Illustrator 19.1.0, SVG Export Plug-In . SVG Version: 6.00 Build 0)  -->

<svg
   xmlns:dc="http://purl.org/dc/elements/1.1/"
   xmlns:cc="http://creativecommons.org/ns#"
   xmlns:rdf="http://www.w3.org/1999/02/22-rdf-syntax-ns#"
   xmlns:svg="http://www.w3.org/2000/svg"
   xmlns="http://www.w3.org/2000/svg"
   xmlns:sodipodi="http://sodipodi.sourceforge.net/DTD/sodipodi-0.dtd"
   xmlns:inkscape="http://www.inkscape.org/namespaces/inkscape"
   version="1.1"
   id="Capa_1"
   x="0px"
   y="0px"
   viewBox="0 0 113.60792 100"
   xml:space="preserve"
   sodipodi:docname="agreement.svg"
   width="113.60792"
   height="100"
   inkscape:version="0.92.2 (5c3e80d, 2017-08-06)"><metadata
     id="metadata41"><rdf:RDF><cc:Work
         rdf:about=""><dc:format>image/svg+xml</dc:format><dc:type
           rdf:resource="http://purl.org/dc/dcmitype/StillImage" /><dc:title></dc:title></cc:Work></rdf:RDF></metadata><defs
     id="defs39" /><sodipodi:namedview
     pagecolor="#ffffff"
     bordercolor="#666666"
     borderopacity="1"
     objecttolerance="10"
     gridtolerance="10"
     guidetolerance="10"
     inkscape:pageopacity="0"
     inkscape:pageshadow="2"
     inkscape:window-width="1366"
     inkscape:window-height="705"
     id="namedview37"
     showgrid="false"
     fit-margin-top="0"
     fit-margin-left="0"
     fit-margin-right="0"
     fit-margin-bottom="0"
     inkscape:zoom="0.48420189"
     inkscape:cx="243.7"
     inkscape:cy="214.5094"
     inkscape:window-x="-8"
     inkscape:window-y="-8"
     inkscape:window-maximized="1"
     inkscape:current-layer="Capa_1" /><g
     id="g4"
     transform="matrix(0.23308969,0,0,0.23308969,0,-6.8038881)"
     style="fill:#6fac37;fill-opacity:1;stroke-width:4.29019403"><path
       d="m 378.6,107.39 c 9.9,0 19.6,-2.6 28.1,-7.7 l 80.7,-47.7 v -22.3 l -90.8,52.9 c -6.9,4 -14.7,6.1 -22.6,6 l -120.2,-1.4 c -6,-2.2 -10.8,-3.6 -12.6,-4.3 -37.6,-8.4 -67,-5.1 -87,0.3 -15,4 -31,2.5 -45.2,-4 L 0,29.19 v 199.8 l 11.3,6.2 c 16.7,9.1 30,23.2 38.3,40.3 l -6.4,5.2 c -17.2,12.5 -20.9,36.7 -9.6,53.8 6.3,8.3 15.2,13.6 25.4,15.4 1.2,0.1 3,0.2 4.3,0.2 3.7,0.2 7.3,-0.2 10.4,-0.7 0.2,8.6 2.2,16 7.3,23 6.8,9.5 17.6,13.8 29.2,14.4 3,0.2 6.1,0.3 8.5,0.5 -1.1,9.1 1.5,18.4 7.2,26 6.3,8.3 15.2,13.6 25.4,15.4 1.2,0.1 3,0.2 4.3,0.2 9.1,0.5 17.8,-2.1 24.8,-7.2 l 3.8,-2.9 c 0.9,5.5 2.5,10.5 5.9,15 5.1,7 12.8,11.7 21.9,13.4 1.2,0.1 2.4,0.1 3.7,0.2 7.3,0.4 14.7,-1.7 21.1,-6.2 h 0.6 l 4.5,6.3 c 7.9,11.4 24.3,14.1 35.7,6.2 9.5,-6.8 13.3,-20.1 9,-30.7 l 0.8,1.2 c 7.5,11.1 21.7,15.9 34.1,10.8 13.7,-5.6 19.2,-20.4 15.6,-33.1 9.2,10.3 25,12.3 36.4,4.4 l 0.6,-0.6 c 11.4,-7.9 14.7,-23 8.6,-35 9.9,9.1 25.7,10.5 37.1,2.6 13.3,-9.7 16.8,-28.4 7.1,-41.8 l -14.2,-20.3 30.9,-36 c 8.1,-9.5 17.8,-17.5 28.6,-23.8 l 15.2,-8.8 v -23.8 l -21,11.9 c -12,6.8 -22.8,15.6 -31.8,26.1 l -33.2,38.5 c -9.9,-9.1 -25.7,-10.5 -37.1,-2.6 -13.3,9.7 -16.8,28.4 -7.1,41.8 l 0.5,1.3 h -0.6 c -9.4,-6.6 -22.2,-7.3 -32.3,-0.5 l -0.6,0.6 c -8.9,6.2 -13.1,17 -11.2,27.5 l -3.2,2.3 c -8.9,-4.7 -19.9,-4.7 -28.8,1.5 -8.2,5.7 -12.4,15.8 -11.7,25 l -8.8,5.6 c -6.6,-1.6 -14,-0.1 -19.7,3.8 -7,5.1 -11.1,13.5 -10.9,21.4 l -4.4,2.8 c -2.6,2.3 -6.9,3.3 -10.5,2.5 -3.6,-0.8 -7.2,-2.8 -9.5,-6 -2.3,-2.6 -3.3,-6.9 -2.5,-10.5 0.8,-3.6 2.8,-7.2 6,-9.5 l 47.7,-35.9 c 2.5,-1.7 3.9,-4.1 4,-7.1 0.3,-5.5 -4.4,-10.2 -9.8,-10.2 -2.1,0 -3.8,0.5 -5.6,1.5 l -76.2,55.2 c -4.4,2.8 -9.4,4.4 -14.8,3.5 -5.4,-0.9 -10.2,-3.6 -13,-8 -6.3,-8.3 -4.4,-21 4.5,-27.2 l 90.8,-64.8 c 2,-1.8 3.4,-4.3 3.4,-7.6 0.1,-5.2 -4.2,-9.6 -9.4,-9.8 -3,-0.1 -5.4,1 -7.4,3.3 l -88.9,64.3 c -2.5,1.1 -3.8,2.9 -5.7,4.6 -10.7,6.8 -26.5,5.3 -32.2,-2.3 -5.7,-8.2 -4.5,-19.2 2.6,-26.1 l 8.9,-6.2 98.8,-67.4 c 2.5,-1.7 3.9,-4.1 4,-7.1 0.2,-3.3 -1.4,-6.4 -4.1,-8.3 -3.5,-2.5 -7,-2.6 -10.7,-0.4 l -105.8,71.9 c -0.7,1.2 -1.9,1.7 -2.6,2.3 l -10.2,7.4 c -8.3,6.3 -21,4.4 -27.2,-4.5 -6.3,-8.3 -4.4,-21 4.5,-27.2 l 199.5,-146.9 c 16,9.4 27.8,28.3 27.8,28.3 19.6,61.4 44,61.9 58.8,54.5 7.7,-3.8 11.2,-12.9 8.5,-21.1 -7.8,-23.7 -12.3,-69.6 -12.3,-69.6 -5.5,-11.9 -23.1,-24.4 -42.7,-34.6 l 64.1,1 z"
       id="path2"
       inkscape:connector-curvature="0"
       style="fill:#6fac37;fill-opacity:1;stroke-width:4.29019403" /></g><g
     id="g6"
     transform="translate(0,-358.2094)" /><g
     id="g8"
     transform="translate(0,-358.2094)" /><g
     id="g10"
     transform="translate(0,-358.2094)" /><g
     id="g12"
     transform="translate(0,-358.2094)" /><g
     id="g14"
     transform="translate(0,-358.2094)" /><g
     id="g16"
     transform="translate(0,-358.2094)" /><g
     id="g18"
     transform="translate(0,-358.2094)" /><g
     id="g20"
     transform="translate(0,-358.2094)" /><g
     id="g22"
     transform="translate(0,-358.2094)" /><g
     id="g24"
     transform="translate(0,-358.2094)" /><g
     id="g26"
     transform="translate(0,-358.2094)" /><g
     id="g28"
     transform="translate(0,-358.2094)" /><g
     id="g30"
     transform="translate(0,-358.2094)" /><g
     id="g32"
     transform="translate(0,-358.2094)" /><g
     id="g34"
     transform="translate(0,-358.2094)" /></svg>