<?xml version="1.0" encoding="UTF-8" standalone="no"?>
<!-- Generator: Adobe Illustrator 16.0.0, SVG Export Plug-In . SVG Version: 6.00 Build 0)  -->

<svg
   xmlns:dc="http://purl.org/dc/elements/1.1/"
   xmlns:cc="http://creativecommons.org/ns#"
   xmlns:rdf="http://www.w3.org/1999/02/22-rdf-syntax-ns#"
   xmlns:svg="http://www.w3.org/2000/svg"
   xmlns="http://www.w3.org/2000/svg"
   xmlns:sodipodi="http://sodipodi.sourceforge.net/DTD/sodipodi-0.dtd"
   xmlns:inkscape="http://www.inkscape.org/namespaces/inkscape"
   version="1.1"
   id="Capa_1"
   x="0px"
   y="0px"
   width="178.33415"
   height="100"
   viewBox="0 0 178.33415 100"
   xml:space="preserve"
   sodipodi:docname="logistics-delivery-truck-in-movement.svg"
   inkscape:version="0.92.2 (5c3e80d, 2017-08-06)"><metadata
     id="metadata43"><rdf:RDF><cc:Work
         rdf:about=""><dc:format>image/svg+xml</dc:format><dc:type
           rdf:resource="http://purl.org/dc/dcmitype/StillImage" /><dc:title></dc:title></cc:Work></rdf:RDF></metadata><defs
     id="defs41" /><sodipodi:namedview
     pagecolor="#ffffff"
     bordercolor="#666666"
     borderopacity="1"
     objecttolerance="10"
     gridtolerance="10"
     guidetolerance="10"
     inkscape:pageopacity="0"
     inkscape:pageshadow="2"
     inkscape:window-width="1366"
     inkscape:window-height="705"
     id="namedview39"
     showgrid="false"
     inkscape:zoom="0.38562092"
     inkscape:cx="306"
     inkscape:cy="171.58801"
     inkscape:window-x="-8"
     inkscape:window-y="-8"
     inkscape:window-maximized="1"
     inkscape:current-layer="Capa_1"
     fit-margin-top="0"
     fit-margin-left="0"
     fit-margin-right="0"
     fit-margin-bottom="0" /><g
     id="g6"
     transform="matrix(0.29139567,0,0,0.29139567,0,-39.167075)"
     style="fill:#6fac37;fill-opacity:1;stroke-width:3.43176007"><g
       id="g4"
       style="fill:#6fac37;fill-opacity:1;stroke-width:3.43176007"><path
         d="m 226.764,375.35 c -28.249,0 -51.078,22.91 -51.078,51.16 0,28.166 22.829,51.078 51.078,51.078 28.249,0 51.078,-22.912 51.078,-51.078 -10e-4,-28.25 -22.829,-51.16 -51.078,-51.16 z m 0,76.699 c -14.125,0 -25.54,-11.498 -25.54,-25.541 0,-14.123 11.415,-25.539 25.54,-25.539 14.124,0 25.539,11.416 25.539,25.539 -0.001,14.043 -11.415,25.541 -25.539,25.541 z M 612,337.561 v 54.541 c 0,13.605 -11.029,24.635 -24.636,24.635 h -26.36 c -4.763,-32.684 -32.929,-57.812 -66.927,-57.812 -33.914,0 -62.082,25.129 -66.845,57.812 H 293.625 c -4.763,-32.684 -32.93,-57.812 -66.845,-57.812 -33.915,0 -62.082,25.129 -66.844,57.812 h -33.012 c -13.606,0 -24.635,-11.029 -24.635,-24.635 V 337.561 Z M 494.143,375.35 c -28.249,0 -51.16,22.91 -51.16,51.16 0,28.166 22.912,51.078 51.16,51.078 28.166,0 51.077,-22.912 51.077,-51.078 0,-28.25 -22.911,-51.16 -51.077,-51.16 z m 0,76.699 c -14.125,0 -25.539,-11.498 -25.539,-25.541 0,-14.123 11.414,-25.539 25.539,-25.539 14.042,0 25.539,11.416 25.539,25.539 0,14.043 -11.497,25.541 -25.539,25.541 z m 108.15,-169.412 -96.817,-95.751 c -6.159,-6.077 -14.453,-9.526 -23.076,-9.526 h -48.86 v -18.313 c 0,-13.631 -11.004,-24.635 -24.635,-24.635 H 126.907 c -13.55,0 -24.635,11.005 -24.635,24.635 v 3.86 L 2.3,174.429 179.446,197.497 0,215.323 178.814,240.746 0,256.25 l 102.278,19.29 -0.007,48.403 h 509.712 v -17.985 c 0,-8.787 -3.531,-17.162 -9.69,-23.321 z m -42.209,3.202 h -93.697 c -2.135,0 -3.86,-1.724 -3.86,-3.859 v -72.347 c 0,-2.135 1.725,-3.86 3.86,-3.86 h 17.82 c 0.985,0 1.971,0.411 2.71,1.068 l 75.796,72.347 c 2.544,2.381 0.819,6.651 -2.629,6.651 z"
         id="path2"
         inkscape:connector-curvature="0"
         style="fill:#6fac37;fill-opacity:1;stroke-width:3.43176007" /></g></g><g
     id="g8"
     transform="translate(0,-377.588)" /><g
     id="g10"
     transform="translate(0,-377.588)" /><g
     id="g12"
     transform="translate(0,-377.588)" /><g
     id="g14"
     transform="translate(0,-377.588)" /><g
     id="g16"
     transform="translate(0,-377.588)" /><g
     id="g18"
     transform="translate(0,-377.588)" /><g
     id="g20"
     transform="translate(0,-377.588)" /><g
     id="g22"
     transform="translate(0,-377.588)" /><g
     id="g24"
     transform="translate(0,-377.588)" /><g
     id="g26"
     transform="translate(0,-377.588)" /><g
     id="g28"
     transform="translate(0,-377.588)" /><g
     id="g30"
     transform="translate(0,-377.588)" /><g
     id="g32"
     transform="translate(0,-377.588)" /><g
     id="g34"
     transform="translate(0,-377.588)" /><g
     id="g36"
     transform="translate(0,-377.588)" /></svg>