<?xml version="1.0" encoding="UTF-8" standalone="no"?>
<!-- Generator: Adobe Illustrator 16.0.0, SVG Export Plug-In . SVG Version: 6.00 Build 0)  -->

<svg
   xmlns:dc="http://purl.org/dc/elements/1.1/"
   xmlns:cc="http://creativecommons.org/ns#"
   xmlns:rdf="http://www.w3.org/1999/02/22-rdf-syntax-ns#"
   xmlns:svg="http://www.w3.org/2000/svg"
   xmlns="http://www.w3.org/2000/svg"
   xmlns:sodipodi="http://sodipodi.sourceforge.net/DTD/sodipodi-0.dtd"
   xmlns:inkscape="http://www.inkscape.org/namespaces/inkscape"
   version="1.1"
   id="Capa_1"
   x="0px"
   y="0px"
   width="138.75031"
   height="100"
   viewBox="0 0 138.7503 100"
   xml:space="preserve"
   sodipodi:docname="plate-fork-and-knife.svg"
   inkscape:version="0.92.2 (5c3e80d, 2017-08-06)"><metadata
     id="metadata49"><rdf:RDF><cc:Work
         rdf:about=""><dc:format>image/svg+xml</dc:format><dc:type
           rdf:resource="http://purl.org/dc/dcmitype/StillImage" /><dc:title></dc:title></cc:Work></rdf:RDF></metadata><defs
     id="defs47" /><sodipodi:namedview
     pagecolor="#ffffff"
     bordercolor="#666666"
     borderopacity="1"
     objecttolerance="10"
     gridtolerance="10"
     guidetolerance="10"
     inkscape:pageopacity="0"
     inkscape:pageshadow="2"
     inkscape:window-width="1366"
     inkscape:window-height="705"
     id="namedview45"
     showgrid="false"
     fit-margin-top="0"
     fit-margin-left="0"
     fit-margin-right="0"
     fit-margin-bottom="0"
     inkscape:zoom="0.78026849"
     inkscape:cx="151.22951"
     inkscape:cy="108.994"
     inkscape:window-x="-8"
     inkscape:window-y="-8"
     inkscape:window-maximized="1"
     inkscape:current-layer="Capa_1" /><g
     id="g12"
     transform="matrix(0.45874085,0,0,0.45874085,0,-19.375379)"
     style="fill:#6fac37;fill-opacity:1;stroke-width:2.1798799"><g
       id="g10"
       style="fill:#6fac37;fill-opacity:1;stroke-width:2.1798799"><path
         d="m 163.816,222.91 c 38.745,0 70.269,-31.514 70.269,-70.259 0,-38.745 -31.523,-70.274 -70.269,-70.274 -38.743,0 -70.264,31.524 -70.264,70.274 0,38.745 31.516,70.259 70.264,70.259 z"
         id="path2"
         inkscape:connector-curvature="0"
         style="fill:#6fac37;fill-opacity:1;stroke-width:2.1798799" /><path
         d="m 163.816,241.771 c 49.226,0 89.118,-39.903 89.118,-89.119 0,-49.228 -39.893,-89.123 -89.118,-89.123 -49.221,0 -89.119,39.895 -89.119,89.123 0,49.215 39.898,89.119 89.119,89.119 z m 0,-164.588 c 41.608,0 75.469,33.862 75.469,75.469 0,41.609 -33.86,75.464 -75.469,75.464 -41.609,0 -75.464,-33.854 -75.464,-75.464 0,-41.607 33.855,-75.469 75.464,-75.469 z"
         id="path4"
         inkscape:connector-curvature="0"
         style="fill:#6fac37;fill-opacity:1;stroke-width:2.1798799" /><path
         d="m 302.459,250.062 -5.2,-200.026 c 0,-4.307 -3.493,-7.8 -7.8,-7.8 -1.152,0 -2.234,0.264 -3.214,0.718 V 42.88 c 0,0 -0.203,0.13 -0.493,0.328 -0.746,0.412 -1.416,0.919 -1.995,1.539 -5.708,4.685 -23.907,23.78 -25.431,49.592 -2.311,39.372 16.813,55.317 23.328,69.921 l -5.199,85.798 c 0,4.306 8.693,7.8 12.999,7.8 4.312,0.004 13.005,-3.489 13.005,-7.796 z"
         id="path6"
         inkscape:connector-curvature="0"
         style="fill:#6fac37;fill-opacity:1;stroke-width:2.1798799" /><path
         d="m 13.614,128.206 13.461,6.724 c 1.534,0.769 3.225,1.33 4.992,1.747 l -5.2,117.007 c 0,3.615 8.696,6.54 13,6.54 4.306,0 13,-2.925 13,-6.54 l -5.2,-117.606 c 1.831,-0.576 3.595,-1.279 5.139,-2.224 l 9.973,-6.073 c 7.196,-4.39 12.619,-14.045 12.619,-22.475 V 52.88 c 0,-4.307 -3.494,-7.8 -7.8,-7.8 -4.304,0 -7.8,3.493 -7.8,7.8 v 47.225 H 55.466 V 52.88 c 0,-4.307 -3.494,-7.8 -7.8,-7.8 -4.304,0 -7.8,3.493 -7.8,7.8 v 47.225 H 35.519 V 52.88 c 0,-4.307 -3.494,-7.8 -7.8,-7.8 -4.304,0 -7.8,3.493 -7.8,7.8 v 47.225 H 15.6 v -45.54 c 0,-4.306 -3.494,-7.8 -7.8,-7.8 -4.304,0 -7.8,3.494 -7.8,7.8 v 51.612 c 0,8.675 5.855,18.15 13.614,22.029 z"
         id="path8"
         inkscape:connector-curvature="0"
         style="fill:#6fac37;fill-opacity:1;stroke-width:2.1798799" /></g></g><g
     id="g14"
     transform="translate(0,-160.224)" /><g
     id="g16"
     transform="translate(0,-160.224)" /><g
     id="g18"
     transform="translate(0,-160.224)" /><g
     id="g20"
     transform="translate(0,-160.224)" /><g
     id="g22"
     transform="translate(0,-160.224)" /><g
     id="g24"
     transform="translate(0,-160.224)" /><g
     id="g26"
     transform="translate(0,-160.224)" /><g
     id="g28"
     transform="translate(0,-160.224)" /><g
     id="g30"
     transform="translate(0,-160.224)" /><g
     id="g32"
     transform="translate(0,-160.224)" /><g
     id="g34"
     transform="translate(0,-160.224)" /><g
     id="g36"
     transform="translate(0,-160.224)" /><g
     id="g38"
     transform="translate(0,-160.224)" /><g
     id="g40"
     transform="translate(0,-160.224)" /><g
     id="g42"
     transform="translate(0,-160.224)" /></svg>