<?xml version="1.0" encoding="UTF-8" standalone="no"?>
<!-- Generator: Adobe Illustrator 16.0.0, SVG Export Plug-In . SVG Version: 6.00 Build 0)  -->

<svg
   xmlns:dc="http://purl.org/dc/elements/1.1/"
   xmlns:cc="http://creativecommons.org/ns#"
   xmlns:rdf="http://www.w3.org/1999/02/22-rdf-syntax-ns#"
   xmlns:svg="http://www.w3.org/2000/svg"
   xmlns="http://www.w3.org/2000/svg"
   xmlns:sodipodi="http://sodipodi.sourceforge.net/DTD/sodipodi-0.dtd"
   xmlns:inkscape="http://www.inkscape.org/namespaces/inkscape"
   version="1.1"
   id="Capa_1"
   x="0px"
   y="0px"
   width="100"
   height="99.99736"
   viewBox="0 0 100 99.997365"
   xml:space="preserve"
   sodipodi:docname="shop-store-frontal-building.svg"
   inkscape:version="0.92.2 (5c3e80d, 2017-08-06)"><metadata
     id="metadata41"><rdf:RDF><cc:Work
         rdf:about=""><dc:format>image/svg+xml</dc:format><dc:type
           rdf:resource="http://purl.org/dc/dcmitype/StillImage" /><dc:title></dc:title></cc:Work></rdf:RDF></metadata><defs
     id="defs39" /><sodipodi:namedview
     pagecolor="#ffffff"
     bordercolor="#666666"
     borderopacity="1"
     objecttolerance="10"
     gridtolerance="10"
     guidetolerance="10"
     inkscape:pageopacity="0"
     inkscape:pageshadow="2"
     inkscape:window-width="1366"
     inkscape:window-height="705"
     id="namedview37"
     showgrid="false"
     inkscape:zoom="3.6873993"
     inkscape:cx="70.755154"
     inkscape:cy="48.169734"
     inkscape:window-x="-8"
     inkscape:window-y="-8"
     inkscape:window-maximized="1"
     inkscape:current-layer="g4"
     fit-margin-top="0"
     fit-margin-left="0"
     fit-margin-right="0"
     fit-margin-bottom="0" /><g
     id="g4"
     transform="matrix(0.19530734,0,0,0.19530734,-5.0124893e-5,-0.00136715)"
     style="stroke-width:5.12013531"><path
       d="m 31.972,256.007 c 10.344,0 20.469,-5 26.656,-14.25 l 6.875,-10.313 c 3.438,13.969 15.469,24.563 30.5,24.563 17.688,0 32,-14.313 32,-32 0,17.688 14.313,32 32,32 17.687,0 32,-14.313 32,-32 0,17.688 14.313,32 32,32 17.687,0 32,-14.313 32,-32 0,17.688 14.312,32 32,32 17.687,0 32,-14.313 32,-32 0,17.688 14.312,32 32,32 17.688,0 32,-14.313 32,-32 0,17.688 14.312,32 32,32 15.062,0 27.062,-10.594 30.5,-24.563 l 6.875,10.313 c 6.156,9.25 16.312,14.25 26.656,14.25 6.094,0 12.25,-1.75 17.719,-5.375 14.719,-9.813 18.688,-29.688 8.875,-44.375 l -58.625,-78.25 h -128 v -32 h 32 c 17.688,0 32,-14.313 32,-32 v -32 c 0,-17.688 -14.312,-32 -32,-32 h -192 c -17.688,0 -32,14.313 -32,32 v 32 c 0,17.688 14.313,32 32,32 h 32 v 32 h -128 l -58.625,78.25 c -9.813,14.688 -5.813,34.563 8.875,44.375 5.437,3.625 11.624,5.375 17.719,5.375 z m 192.03,-160 h 64 v 32 h -64 z m 288,416 h -512 c 0,-26.5 21.5,-48 48,-48 h 416 c 26.5,0 48,21.5 48,48 z m -416,-240 h -32 v 144 32 h 384 v -32 -144 h -32 z m 0,144 v -112 h 96 v 112 z m 128,0 v -112 h 192 v 112 z m -80,-64 c 0,8.844 -7.156,16 -16,16 -8.844,0 -16,-7.156 -16,-16 0,-8.844 7.156,-16 16,-16 8.844,0 16,7.156 16,16 z"
       id="path2"
       inkscape:connector-curvature="0"
       style="fill:#6fac37;fill-opacity:1;stroke-width:5.12013531"
       sodipodi:nodetypes="sccscscscscscsccscccccsssssssscccccscccccccssccccccccccccccccccccsssss" /><text
       xml:space="preserve"
       style="font-style:normal;font-variant:normal;font-weight:normal;font-stretch:normal;font-size:76.3407135px;line-height:125%;font-family:'Fontdiner Swanky';-inkscape-font-specification:'Fontdiner Swanky';text-align:start;letter-spacing:0px;word-spacing:0px;writing-mode:lr-tb;text-anchor:start;fill:#000000;fill-opacity:1;stroke:none;stroke-width:5.12013483px;stroke-linecap:butt;stroke-linejoin:miter;stroke-opacity:1"
       x="159.31393"
       y="75.706528"
       id="text46"><tspan
         sodipodi:role="line"
         id="tspan44"
         x="159.31393"
         y="75.706528"
         style="fill:#ffffff;fill-opacity:1;stroke-width:5.12013483px">обед</tspan></text>
<text
       xml:space="preserve"
       style="font-style:normal;font-variant:normal;font-weight:normal;font-stretch:normal;font-size:96.63387299px;line-height:125%;font-family:'Fontdiner Swanky';-inkscape-font-specification:'Fontdiner Swanky';text-align:start;letter-spacing:0px;word-spacing:0px;writing-mode:lr-tb;text-anchor:start;fill:#000000;fill-opacity:1;stroke:none;stroke-width:5.12013483px;stroke-linecap:butt;stroke-linejoin:miter;stroke-opacity:1"
       x="99.516563"
       y="214.3058"
       id="text46-1"><tspan
         sodipodi:role="line"
         id="tspan44-3"
         x="99.516563"
         y="214.3058"
         style="fill:#ffffff;fill-opacity:1;stroke-width:5.12013483px">буфет</tspan></text>
</g><g
     id="g6"
     transform="translate(-2.5664623e-4,-412.00965)" /><g
     id="g8"
     transform="translate(-2.5664623e-4,-412.00965)" /><g
     id="g10"
     transform="translate(-2.5664623e-4,-412.00965)" /><g
     id="g12"
     transform="translate(-2.5664623e-4,-412.00965)" /><g
     id="g14"
     transform="translate(-2.5664623e-4,-412.00965)" /><g
     id="g16"
     transform="translate(-2.5664623e-4,-412.00965)" /><g
     id="g18"
     transform="translate(-2.5664623e-4,-412.00965)" /><g
     id="g20"
     transform="translate(-2.5664623e-4,-412.00965)" /><g
     id="g22"
     transform="translate(-2.5664623e-4,-412.00965)" /><g
     id="g24"
     transform="translate(-2.5664623e-4,-412.00965)" /><g
     id="g26"
     transform="translate(-2.5664623e-4,-412.00965)" /><g
     id="g28"
     transform="translate(-2.5664623e-4,-412.00965)" /><g
     id="g30"
     transform="translate(-2.5664623e-4,-412.00965)" /><g
     id="g32"
     transform="translate(-2.5664623e-4,-412.00965)" /><g
     id="g34"
     transform="translate(-2.5664623e-4,-412.00965)" /></svg>