<?xml version="1.0" encoding="UTF-8" standalone="no"?>
<!-- Generator: Adobe Illustrator 16.0.0, SVG Export Plug-In . SVG Version: 6.00 Build 0)  -->

<svg
   xmlns:dc="http://purl.org/dc/elements/1.1/"
   xmlns:cc="http://creativecommons.org/ns#"
   xmlns:rdf="http://www.w3.org/1999/02/22-rdf-syntax-ns#"
   xmlns:svg="http://www.w3.org/2000/svg"
   xmlns="http://www.w3.org/2000/svg"
   xmlns:sodipodi="http://sodipodi.sourceforge.net/DTD/sodipodi-0.dtd"
   xmlns:inkscape="http://www.inkscape.org/namespaces/inkscape"
   version="1.1"
   id="Capa_1"
   x="0px"
   y="0px"
   width="100"
   height="100"
   viewBox="0 0 100 100"
   xml:space="preserve"
   sodipodi:docname="tick-inside-circle.svg"
   inkscape:version="0.92.2 (5c3e80d, 2017-08-06)"><metadata
     id="metadata42"><rdf:RDF><cc:Work
         rdf:about=""><dc:format>image/svg+xml</dc:format><dc:type
           rdf:resource="http://purl.org/dc/dcmitype/StillImage" /><dc:title></dc:title></cc:Work></rdf:RDF></metadata><defs
     id="defs40" /><sodipodi:namedview
     pagecolor="#ffffff"
     bordercolor="#666666"
     borderopacity="1"
     objecttolerance="10"
     gridtolerance="10"
     guidetolerance="10"
     inkscape:pageopacity="0"
     inkscape:pageshadow="2"
     inkscape:window-width="1366"
     inkscape:window-height="705"
     id="namedview38"
     showgrid="false"
     fit-margin-top="0"
     fit-margin-left="0"
     fit-margin-right="0"
     fit-margin-bottom="0"
     inkscape:zoom="0.4627451"
     inkscape:cx="255"
     inkscape:cy="82.118643"
     inkscape:window-x="-8"
     inkscape:window-y="-8"
     inkscape:window-maximized="1"
     inkscape:current-layer="Capa_1" /><g
     id="g5"
     transform="scale(0.19607843)"
     style="fill:#6fac37;fill-opacity:1;stroke-width:5.0999999"><g
       id="check-circle-outline"
       style="fill:#6fac37;fill-opacity:1;stroke-width:5.0999999"><path
         d="m 150.45,206.55 -35.7,35.7 L 229.5,357 484.5,102 448.8,66.3 229.5,285.6 Z M 459,255 C 459,367.2 367.2,459 255,459 142.8,459 51,367.2 51,255 51,142.8 142.8,51 255,51 c 20.4,0 38.25,2.55 56.1,7.65 l 40.801,-40.8 C 321.3,7.65 288.15,0 255,0 114.75,0 0,114.75 0,255 0,395.25 114.75,510 255,510 395.25,510 510,395.25 510,255 Z"
         id="path2"
         inkscape:connector-curvature="0"
         style="fill:#6fac37;fill-opacity:1;stroke-width:5.0999999" /></g></g><g
     id="g7"
     transform="translate(0,-410)" /><g
     id="g9"
     transform="translate(0,-410)" /><g
     id="g11"
     transform="translate(0,-410)" /><g
     id="g13"
     transform="translate(0,-410)" /><g
     id="g15"
     transform="translate(0,-410)" /><g
     id="g17"
     transform="translate(0,-410)" /><g
     id="g19"
     transform="translate(0,-410)" /><g
     id="g21"
     transform="translate(0,-410)" /><g
     id="g23"
     transform="translate(0,-410)" /><g
     id="g25"
     transform="translate(0,-410)" /><g
     id="g27"
     transform="translate(0,-410)" /><g
     id="g29"
     transform="translate(0,-410)" /><g
     id="g31"
     transform="translate(0,-410)" /><g
     id="g33"
     transform="translate(0,-410)" /><g
     id="g35"
     transform="translate(0,-410)" /></svg>