<?xml version="1.0" encoding="UTF-8" standalone="no"?>
<!-- Generator: Adobe Illustrator 16.0.0, SVG Export Plug-In . SVG Version: 6.00 Build 0)  -->

<svg
   xmlns:dc="http://purl.org/dc/elements/1.1/"
   xmlns:cc="http://creativecommons.org/ns#"
   xmlns:rdf="http://www.w3.org/1999/02/22-rdf-syntax-ns#"
   xmlns:svg="http://www.w3.org/2000/svg"
   xmlns="http://www.w3.org/2000/svg"
   xmlns:sodipodi="http://sodipodi.sourceforge.net/DTD/sodipodi-0.dtd"
   xmlns:inkscape="http://www.inkscape.org/namespaces/inkscape"
   version="1.1"
   id="Capa_1"
   x="0px"
   y="0px"
   width="100"
   height="106.06281"
   viewBox="0 0 100 106.06281"
   xml:space="preserve"
   sodipodi:docname="workers-team.svg"
   inkscape:version="0.92.2 (5c3e80d, 2017-08-06)"><metadata
     id="metadata65"><rdf:RDF><cc:Work
         rdf:about=""><dc:format>image/svg+xml</dc:format><dc:type
           rdf:resource="http://purl.org/dc/dcmitype/StillImage" /><dc:title></dc:title></cc:Work></rdf:RDF></metadata><defs
     id="defs63" /><sodipodi:namedview
     pagecolor="#ffffff"
     bordercolor="#666666"
     borderopacity="1"
     objecttolerance="10"
     gridtolerance="10"
     guidetolerance="10"
     inkscape:pageopacity="0"
     inkscape:pageshadow="2"
     inkscape:window-width="1366"
     inkscape:window-height="705"
     id="namedview61"
     showgrid="false"
     fit-margin-top="0"
     fit-margin-left="0"
     fit-margin-right="0"
     fit-margin-bottom="0"
     inkscape:zoom="0.29975867"
     inkscape:cx="371.14999"
     inkscape:cy="393.65001"
     inkscape:window-x="-8"
     inkscape:window-y="-8"
     inkscape:window-maximized="1"
     inkscape:current-layer="Capa_1" /><g
     id="g28"
     transform="matrix(0.13471697,0,0,0.13471697,-3.0311318,1.3471697e-4)"
     style="fill:#6fac37;fill-opacity:1;stroke-width:7.42296982"><g
       id="g10"
       style="fill:#6fac37;fill-opacity:1;stroke-width:7.42296982"><g
         id="g6"
         style="fill:#6fac37;fill-opacity:1;stroke-width:7.42296982"><path
           d="m 393.3,172 c 0.1,0 0.2,0 0.399,0 0.101,0 0.2,0 0.4,0 47.3,0 85.599,-38.3 85.599,-85.6 0,-7.5 -1,-14.8 -2.799,-21.7 -9.5,-36.9 -43,-64.2 -82.9,-64.2 -0.101,0 -0.2,0 -0.4,0 -0.1,0 -0.2,0 -0.4,0 -47.3,-0.1 -85.6,38.3 -85.6,85.5 0,7.5 1,14.8 2.8,21.7 9.5,37 43,64.3 82.901,64.3 z"
           id="path2"
           inkscape:connector-curvature="0"
           style="fill:#6fac37;fill-opacity:1;stroke-width:7.42296982" /><path
           d="m 394.1,172.5 h -0.8 c -39.318,0 -73.607,-26.596 -83.385,-64.676 C 308.047,100.663 307.1,93.319 307.1,86 307.1,38.579 345.642,0 393.015,0 H 394 c 39.307,0 73.595,26.554 83.384,64.575 1.867,7.163 2.814,14.507 2.814,21.825 0.001,47.475 -38.623,86.1 -86.098,86.1 z M 393.015,1 C 346.192,1 308.1,39.131 308.1,86 c 0,7.234 0.937,14.492 2.784,21.574 9.664,37.64 43.555,63.926 82.417,63.926 h 0.8 c 46.923,0 85.099,-38.176 85.099,-85.1 0,-7.233 -0.937,-14.492 -2.782,-21.574 C 466.741,27.246 432.85,1 394,1 Z"
           id="path4"
           inkscape:connector-curvature="0"
           style="fill:#6fac37;fill-opacity:1;stroke-width:7.42296982" /></g><path
         d="M 483.8,207.9 H 462.4 L 441,314.7 h -25.301 l -6.6,-71.7 c 2,-10.9 6.701,-21.1 11.701,-31.8 0,0 0.898,-1.9 1.398,-2.9 v 0 c -0.1,0 -0.199,0 -0.299,0 0.1,-0.1 0.1,-0.3 0.199,-0.4 -30,0 -27.599,0 -57,0 v 0 c 0.1,0.1 0.1,0.2 0.2,0.4 h -0.101 v 0 c 0.5,1 1.4,2.9 1.4,2.9 4.4,9.3 8.5,18.2 10.8,27.6 0.3,1.3 0.601,2.6 0.8,3.9 l -6.6,72.1 h -25.3 L 324.897,208 H 303.5 c -32.5,0 -58.8,26.3 -58.8,58.8 v 171.3 c 0,32.5 26.3,58.8 58.8,58.8 h 7.5 v 248.9 c 0,22.9 18.6,41.5 41.5,41.5 21.3,0 38.899,-16.1 41.199,-36.9 2.3,20.7 19.9,36.9 41.201,36.9 22.9,0 41.5,-18.6 41.5,-41.5 V 496.7 h 7.5 c 32.5,0 58.799,-26.301 58.799,-58.801 V 266.6 C 542.5,234.2 516.199,207.9 483.8,207.9 Z"
         id="path8"
         inkscape:connector-curvature="0"
         style="fill:#6fac37;fill-opacity:1;stroke-width:7.42296982" /></g><g
       id="g16"
       style="fill:#6fac37;fill-opacity:1;stroke-width:7.42296982"><path
         d="m 615.4,172 c 0.1,0 0.199,0 0.4,0 0.1,0 0.199,0 0.398,0 47.301,0 85.602,-38.3 85.602,-85.6 0,-7.5 -1,-14.8 -2.801,-21.7 -9.5,-36.9 -43,-64.2 -82.9,-64.2 -0.1,0 -0.199,0 -0.4,0 -0.1,0 -0.199,0 -0.398,0 -47.301,0 -85.602,38.3 -85.602,85.6 0,7.5 1,14.8 2.801,21.7 9.5,36.9 43,64.2 82.9,64.2 z"
         id="path12"
         inkscape:connector-curvature="0"
         style="fill:#6fac37;fill-opacity:1;stroke-width:7.42296982" /><path
         d="M 616.199,172.5 H 615.4 c -39.307,0 -73.596,-26.554 -83.385,-64.576 -1.868,-7.16 -2.816,-14.504 -2.816,-21.825 0,-47.476 38.625,-86.1 86.102,-86.1 h 0.799 c 39.307,0 73.596,26.554 83.385,64.575 1.868,7.16 2.816,14.504 2.816,21.825 C 702.3,133.875 663.675,172.5 616.199,172.5 Z M 615.3,1 c -46.925,0 -85.102,38.175 -85.102,85.1 0,7.236 0.937,14.494 2.784,21.574 9.676,37.581 43.566,63.827 82.417,63.827 h 0.799 c 46.925,0 85.102,-38.176 85.102,-85.1 0,-7.236 -0.937,-14.494 -2.784,-21.574 C 688.84,27.246 654.95,1 616.099,1 Z"
         id="path14"
         inkscape:connector-curvature="0"
         style="fill:#6fac37;fill-opacity:1;stroke-width:7.42296982" /></g><path
       d="M 705.9,207.9 H 684.5 L 663.1,314.7 H 637.8 L 631.198,243 c 2,-10.9 6.701,-21.1 11.701,-31.8 0,0 0.9,-1.9 1.4,-2.9 -0.102,0 -0.201,0 -0.301,0 0.1,-0.1 0.1,-0.3 0.199,-0.4 -30,0 -27.6,0 -57,0 v 0 c 0.102,0.1 0.102,0.2 0.201,0.4 h -0.1 v 0 c 0.5,1 1.398,2.9 1.398,2.9 4.4,9.3 8.5,18.2 10.801,27.6 0.301,1.3 0.6,2.6 0.801,3.9 l -6.602,72.1 h -23 v 123.3 c 0,29.601 -14.898,55.8 -37.6,71.4 v 236.3 c 0,22.9 18.6,41.5 41.5,41.5 21.301,0 38.9,-16.1 41.201,-36.9 2.299,20.7 19.9,36.9 41.199,36.9 22.9,0 41.5,-18.6 41.5,-41.5 V 496.7 h 7.5 c 32.5,0 58.801,-26.301 58.801,-58.801 V 266.6 C 764.599,234.2 738.3,207.9 705.9,207.9 Z"
       id="path18"
       inkscape:connector-curvature="0"
       style="fill:#6fac37;fill-opacity:1;stroke-width:7.42296982" /><g
       id="g24"
       style="fill:#6fac37;fill-opacity:1;stroke-width:7.42296982"><path
         d="m 171.2,172 c 0.1,0 0.2,0 0.4,0 0.1,0 0.2,0 0.4,0 47.3,0 85.6,-38.3 85.6,-85.6 0,-7.5 -1,-14.8 -2.8,-21.7 -9.5,-36.9 -43,-64.2 -82.9,-64.2 -0.1,0 -0.2,0 -0.4,0 -0.1,0 -0.2,0 -0.4,0 -47.3,0 -85.6,38.3 -85.6,85.6 0,7.5 1,14.8 2.8,21.7 9.5,36.9 43,64.2 82.9,64.2 z"
         id="path20"
         inkscape:connector-curvature="0"
         style="fill:#6fac37;fill-opacity:1;stroke-width:7.42296982" /><path
         d="m 172,172.5 h -0.8 C 131.893,172.5 97.605,145.946 87.816,107.924 85.947,100.763 85,93.42 85,86.1 85,38.624 123.624,0 171.1,0 h 0.8 c 39.307,0 73.596,26.554 83.385,64.575 1.868,7.162 2.815,14.505 2.815,21.825 0,47.475 -38.625,86.1 -86.1,86.1 z M 171.1,1 C 124.175,1 86,39.175 86,86.1 c 0,7.235 0.937,14.494 2.784,21.574 9.675,37.58 43.566,63.826 82.416,63.826 h 0.8 c 46.924,0 85.1,-38.176 85.1,-85.1 0,-7.234 -0.937,-14.493 -2.784,-21.574 C 244.641,27.246 210.75,1 171.899,1 Z"
         id="path22"
         inkscape:connector-curvature="0"
         style="fill:#6fac37;fill-opacity:1;stroke-width:7.42296982" /></g><path
       d="M 216.6,438 V 314.7 h -23 L 187,243 c 2,-10.9 6.7,-21.1 11.7,-31.8 0,0 0.9,-1.9 1.4,-2.9 -0.1,0 -0.2,0 -0.3,0 0.1,-0.1 0.1,-0.3 0.2,-0.4 -30,0 -27.6,0 -57,0 v 0 c 0.1,0.1 0.1,0.2 0.2,0.4 h -0.1 v 0 c 0.5,1 1.4,2.9 1.4,2.9 4.4,9.3 8.5,18.2 10.8,27.6 0.3,1.3 0.6,2.6 0.8,3.9 l -6.6,72.1 H 124.2 L 102.8,208 H 81.3 c -32.5,0 -58.8,26.3 -58.8,58.8 v 171.3 c 0,32.5 26.3,58.8 58.8,58.8 h 7.5 v 248.9 c 0,22.9 18.6,41.5 41.5,41.5 21.3,0 38.9,-16.1 41.2,-36.9 2.3,20.7 19.9,36.9 41.2,36.9 22.9,0 41.5,-18.6 41.5,-41.5 V 509.4 C 231.5,493.7 216.6,467.6 216.6,438 Z"
       id="path26"
       inkscape:connector-curvature="0"
       style="fill:#6fac37;fill-opacity:1;stroke-width:7.42296982" /></g><g
     id="g30"
     transform="translate(-22.5,-681.2372)" /><g
     id="g32"
     transform="translate(-22.5,-681.2372)" /><g
     id="g34"
     transform="translate(-22.5,-681.2372)" /><g
     id="g36"
     transform="translate(-22.5,-681.2372)" /><g
     id="g38"
     transform="translate(-22.5,-681.2372)" /><g
     id="g40"
     transform="translate(-22.5,-681.2372)" /><g
     id="g42"
     transform="translate(-22.5,-681.2372)" /><g
     id="g44"
     transform="translate(-22.5,-681.2372)" /><g
     id="g46"
     transform="translate(-22.5,-681.2372)" /><g
     id="g48"
     transform="translate(-22.5,-681.2372)" /><g
     id="g50"
     transform="translate(-22.5,-681.2372)" /><g
     id="g52"
     transform="translate(-22.5,-681.2372)" /><g
     id="g54"
     transform="translate(-22.5,-681.2372)" /><g
     id="g56"
     transform="translate(-22.5,-681.2372)" /><g
     id="g58"
     transform="translate(-22.5,-681.2372)" /></svg>