<?xml version="1.0" encoding="UTF-8" standalone="no"?>
<!-- Created with Inkscape (http://www.inkscape.org/) -->

<svg
   xmlns:dc="http://purl.org/dc/elements/1.1/"
   xmlns:cc="http://creativecommons.org/ns#"
   xmlns:rdf="http://www.w3.org/1999/02/22-rdf-syntax-ns#"
   xmlns:svg="http://www.w3.org/2000/svg"
   xmlns="http://www.w3.org/2000/svg"
   xmlns:sodipodi="http://sodipodi.sourceforge.net/DTD/sodipodi-0.dtd"
   xmlns:inkscape="http://www.inkscape.org/namespaces/inkscape"
   id="svg2"
   version="1.1"
   inkscape:version="0.92.2 (5c3e80d, 2017-08-06)"
   width="414.95462"
   height="150"
   xml:space="preserve"
   sodipodi:docname="bg-bread.svg"><metadata
     id="metadata8"><rdf:RDF><cc:Work
         rdf:about=""><dc:format>image/svg+xml</dc:format><dc:type
           rdf:resource="http://purl.org/dc/dcmitype/StillImage" /><dc:title></dc:title></cc:Work></rdf:RDF></metadata><defs
     id="defs6"><radialGradient
       fx="0"
       fy="0"
       cx="0"
       cy="0"
       r="1"
       gradientUnits="userSpaceOnUse"
       gradientTransform="matrix(590.7088,0,0,-590.7088,89.592108,413.18335)"
       spreadMethod="pad"
       id="radialGradient24"><stop
         style="stop-opacity:1;stop-color:#ffffff"
         offset="0"
         id="stop26" /><stop
         style="stop-opacity:1;stop-color:#e9d8c6"
         offset="1"
         id="stop28" /></radialGradient><clipPath
       clipPathUnits="userSpaceOnUse"
       id="clipPath36"><path
         d="M 0,800 H 800 V 0 H 0 Z"
         id="path38"
         inkscape:connector-curvature="0" /></clipPath><clipPath
       clipPathUnits="userSpaceOnUse"
       id="clipPath172"><path
         d="M 0,800 H 800 V 0 H 0 Z"
         id="path174"
         inkscape:connector-curvature="0" /></clipPath></defs><sodipodi:namedview
     pagecolor="#ffffff"
     bordercolor="#666666"
     borderopacity="1"
     objecttolerance="10"
     gridtolerance="10"
     guidetolerance="10"
     inkscape:pageopacity="0"
     inkscape:pageshadow="2"
     inkscape:window-width="1366"
     inkscape:window-height="705"
     id="namedview4"
     showgrid="false"
     inkscape:zoom="1.3350176"
     inkscape:cx="106.13516"
     inkscape:cy="69.384756"
     inkscape:window-x="-8"
     inkscape:window-y="-8"
     inkscape:window-maximized="1"
     inkscape:current-layer="g10"
     fit-margin-top="0"
     fit-margin-left="0"
     fit-margin-right="0"
     fit-margin-bottom="0" /><g
     id="g10"
     inkscape:groupmode="layer"
     inkscape:label="2 bread draw"
     transform="matrix(1.25,0,0,-1.25,-16.009924,791.60611)"><g
       id="g281"
       transform="matrix(0.42363594,0,0,0.42363594,-110.40941,261.31915)"
       style="opacity:0.15;fill:#6fac37;fill-opacity:1;stroke:none;stroke-width:2.3605175;stroke-opacity:1"><g
         transform="translate(409.375,690.2412)"
         id="g304"
         style="fill:#6fac37;fill-opacity:1;stroke:none;stroke-width:2.3605175;stroke-opacity:1"><path
           inkscape:connector-curvature="0"
           id="path306"
           style="fill:#6fac37;fill-opacity:1;fill-rule:nonzero;stroke:none;stroke-width:2.3605175;stroke-opacity:1"
           d="m 0,0 c -4.047,1.855 -8.111,3.006 -12.225,3.344 3.421,2.489 6.173,6.639 8.213,11.197 0.175,-0.06 0.364,-0.088 0.573,-0.029 5.145,1.443 10.16,2.581 15.463,2.689 C 10.26,9.666 6.543,3.907 0,0 m -15.1,-15.815 c -9.033,3.037 -19.004,2.669 -28.521,1.483 0.138,0.268 0.261,0.547 0.391,0.82 7.326,2.598 13.927,7.453 18.058,13.629 7.623,1.391 14.677,0.778 21.641,-2.096 -1.025,-1.191 0.488,-3.432 2.254,-2.603 0.181,0.086 0.353,0.181 0.534,0.27 -3.61,-5.111 -8.909,-8.438 -14.357,-11.503 m 3.801,-5.403 c -4.91,-5.445 -11.542,-7.409 -18.658,-5.501 -2.81,2.464 -6.876,3.884 -10.281,3.702 -7.157,-0.38 -13.544,-3.889 -19.7,-7.627 0.424,1.067 0.738,2.185 1,3.317 0.111,0.012 0.225,0.033 0.345,0.071 6.11,1.893 10.781,5.915 13.891,10.983 8.985,-0.357 18.138,0.276 26.636,-2.184 0.035,-1.148 1.215,-2.285 2.535,-1.56 0.257,0.142 0.512,0.284 0.769,0.426 1.171,-0.47 2.327,-1.001 3.463,-1.627 m -19.805,-15.45 c -4.542,-4.395 -15.203,-2.904 -20.818,-2.412 -4.015,0.352 -8.483,0.862 -12.583,2.078 1.024,0.8 1.901,1.736 2.643,2.776 4.612,2.207 9.125,4.651 13.938,6.412 4.255,1.556 9.361,2.909 13.662,0.849 0.324,-0.155 0.645,-0.363 0.96,-0.597 -0.155,-0.799 0.163,-1.738 1.112,-2.152 0.385,-0.17 0.772,-0.301 1.158,-0.441 1.27,-2.163 1.678,-4.822 -0.072,-6.513 m -37.319,1.141 c -0.39,0.184 -0.789,0.355 -1.165,0.557 -0.19,0.104 -0.389,0.161 -0.585,0.184 0.063,0.881 -0.929,1.505 -1.724,1.129 -3.624,4.417 -4.911,11.54 -4.069,16.764 0.674,4.187 6.914,11.936 11.32,7.398 6.068,-6.247 4.163,-22.182 -3.777,-26.032 m -45.306,-28.104 c 4.638,7.304 15.317,10.603 22.706,13.786 6.907,2.977 14.662,6.27 19.304,12.437 0.031,-0.031 0.041,-0.068 0.076,-0.097 0.297,-0.26 0.618,-0.499 0.948,-0.732 -12.208,-11.524 -26.959,-20.473 -43.034,-25.394 m 58.302,63.694 c 2.233,3.573 10.156,14.048 11.944,5.695 2.471,-11.55 -3.551,-25.398 -14.854,-29.561 0.068,0.66 0.124,1.319 0.153,1.969 0.147,3.191 -0.26,7.508 -1.791,11.012 1.493,3.708 2.321,7.318 4.548,10.885 m 23.599,18.646 c 0.871,0.628 6.422,3.724 7.089,1.758 1.167,-3.442 1.178,-6.994 0.559,-10.529 -1.568,-8.934 -9.336,-15.705 -17.415,-19.223 1.449,4.766 1.789,9.927 0.948,14.876 1.553,5.452 4.132,9.742 8.819,13.118 M -2.956,31.341 C -3.106,19.262 -9.771,5.225 -22.722,4.303 c -0.055,-0.005 -0.098,-0.028 -0.15,-0.036 2.004,4.493 2.727,9.491 1.636,14.715 4.909,5.886 10.546,11.137 18.28,12.359 m 25.507,7.716 C 20.514,31.041 15.326,23.982 7.653,20.515 7.279,20.346 7.032,20.104 6.892,19.828 3.521,19.272 0.229,18.338 -2.983,17.021 c 1.346,3.529 2.264,7.164 2.74,10.381 6.596,6.366 13.757,10.406 22.794,11.655 M 15.558,18.364 c 0.165,0.964 -0.351,1.97 -1.401,2.048 6.391,4.755 10.66,12.165 11.986,20.039 0.154,0.919 -0.378,2.168 -1.525,2.056 C 15.143,41.586 6.476,38.218 0.126,31.359 c 0.016,0.594 0.013,1.161 -0.017,1.687 -0.04,0.762 -0.643,1.644 -1.517,1.557 -8.754,-0.874 -15.646,-5.956 -20.533,-12.988 -0.17,0.523 -0.354,1.049 -0.562,1.576 -0.224,0.575 -0.718,1.214 -1.435,1.135 -8.7,-0.956 -15.295,-6.784 -17.643,-14.813 -0.314,1.018 -0.677,2.021 -1.101,2.998 -0.227,0.523 -1.029,0.89 -1.571,0.682 -5.835,-2.23 -9.933,-6.684 -13.237,-11.861 -1.393,-2.18 -3.715,-6.342 -3.845,-9.711 -0.923,1.286 -2.082,2.332 -3.531,2.969 -6.059,2.663 -12.235,-4.44 -13.837,-9.565 -1.879,-6.002 -0.007,-15.922 5.209,-20.517 -11.559,-13.839 -38.594,-11.852 -44.943,-30.299 -0.414,-1.202 0.829,-2.393 2.01,-2.08 18.019,4.774 35.713,14.587 48.949,27.921 5.864,-2.374 13.933,-2.496 19.303,-2.775 5.775,-0.299 18.182,-0.8 20.957,6.053 0.802,1.98 0.822,3.838 0.298,5.509 7.649,-0.92 15.019,3.144 19.789,9.499 0.578,0.768 0.18,1.953 -0.578,2.42 -1.081,0.669 -2.19,1.249 -3.314,1.784 5.842,3.466 11.283,7.535 14.558,13.697 0.316,0.594 0.299,1.358 -0.108,1.886 6.78,4.708 10.641,11.574 12.131,20.241" /></g><g
         transform="translate(462.2187,646.0259)"
         id="g308"
         style="fill:#6fac37;fill-opacity:1;stroke:none;stroke-width:2.3605175;stroke-opacity:1"><path
           inkscape:connector-curvature="0"
           id="path310"
           style="fill:#6fac37;fill-opacity:1;fill-rule:nonzero;stroke:none;stroke-width:2.3605175;stroke-opacity:1"
           d="m 0,0 c -3.503,-3.022 -7.418,-5.209 -11.597,-7.273 -0.17,-0.084 -0.276,-0.212 -0.355,-0.353 -3.981,1.767 -8.185,2.854 -11.855,2.473 2.471,2.618 4.436,5.734 5.979,9.298 C -11.307,5.425 -5.537,3.857 0,0 m -20.823,6.507 c -0.17,-0.047 -0.336,-0.085 -0.504,-0.136 -1.629,-0.492 -1.304,-2.827 0.055,-3.001 -2.84,-5.926 -7.058,-10.436 -12.813,-13.979 -6.281,1.596 -13.393,0.895 -19.659,-1.691 -0.243,0.102 -0.485,0.211 -0.731,0.305 6.864,4.78 13.544,10.355 17.633,17.592 5.318,1.188 10.696,2.12 16.019,0.91 m -18.002,1.736 c -0.248,-0.058 -0.497,-0.114 -0.747,-0.173 -1.279,-0.299 -1.381,-1.724 -0.734,-2.49 -4.077,-6.551 -10.382,-11.476 -16.002,-16.947 -4.971,1.474 -10.348,1.359 -15.413,-0.976 -0.101,-0.046 -0.188,-0.099 -0.265,-0.156 -0.83,0.581 -1.688,1.124 -2.585,1.567 6.174,1.166 12.362,2.616 17.225,6.541 2.315,1.869 4.125,5.161 4.508,8.397 3.504,5.386 8.951,7.98 15.311,7.311 C -37.9,10.248 -38.34,9.23 -38.825,8.243 M -55.537,5.607 c -0.169,-0.316 -0.344,-0.626 -0.494,-0.961 -0.372,-0.821 -0.032,-1.617 0.532,-2.044 -0.067,-0.336 -0.153,-0.657 -0.272,-0.947 -1.587,-3.843 -5.69,-5.944 -9.356,-7.415 -4.149,-1.666 -8.502,-2.711 -12.78,-3.97 -1.086,0.243 -2.202,0.337 -3.332,0.26 1.949,3.179 4.551,6.115 6.949,8.684 3.355,3.594 9.4,10.776 14.908,10.576 2.121,-0.078 3.407,-2.04 3.845,-4.183 m -9.753,-32.999 c -0.211,-5.511 -8.777,-4.125 -11.656,-1.803 -3.593,2.897 -6.911,8.267 -7.137,13.246 0.735,0.218 1.014,1.201 0.461,1.737 0.113,0.129 0.208,0.282 0.271,0.46 0.126,0.35 0.284,0.693 0.431,1.04 7.395,2.133 17.922,-7.091 17.63,-14.68 m -20.685,15.114 c -0.077,-0.343 -0.146,-0.687 -0.187,-1.028 -0.005,-0.039 0.01,-0.069 0.007,-0.108 -6.606,1.293 -13.555,-1.093 -19.771,-3.19 -6.648,-2.244 -15.499,-6.331 -22.764,-4.297 13.294,6.181 28.079,8.977 42.715,8.623 m 22.94,-11.53 c -1.052,3.165 -3.304,6.202 -5.26,8.187 -0.397,0.404 -0.819,0.799 -1.248,1.186 9.76,3.891 21.74,-1.578 26.872,-10.509 3.709,-6.461 -7.535,-4.286 -11.066,-3.271 -3.526,1.015 -6.168,2.873 -9.298,4.407 m 22.104,0.625 c -2.339,3.7 -5.568,6.849 -9.288,9.096 7.292,2.428 16.278,2.566 22.503,-2.312 2.464,-1.933 4.529,-4.243 5.778,-7.156 0.714,-1.663 -4.692,-2.893 -5.623,-2.993 -5.009,-0.544 -9.182,0.736 -13.37,3.365 m 20.398,2.633 c -2.336,4.026 -5.721,6.845 -9.641,8.591 0.039,0.024 0.079,0.034 0.12,0.063 8.935,6.954 21.443,1.736 28.584,-6.01 -5.73,-3.717 -12.447,-3.598 -19.063,-2.644 m 18.526,6.781 c -2.185,1.81 -4.899,3.631 -7.832,5.135 2.853,1.019 5.531,2.332 8.042,3.937 0.253,-0.096 0.554,-0.109 0.895,-0.001 6.997,2.224 14.479,0.672 20.471,-3.34 -6.588,-4.459 -13.587,-6.014 -21.576,-5.731 M -16.699,7.36 c -0.044,0.579 -0.479,1.085 -1.031,1.286 -5.717,2.087 -11.618,1.552 -17.428,0.395 0.417,1.001 0.798,2.024 1.11,3.089 0.219,0.745 -0.215,1.745 -1.037,1.907 -6.799,1.338 -13.947,-0.322 -18.372,-5.379 -0.637,1.389 -1.731,2.584 -3.405,3.401 -5.799,2.825 -13.552,-4.735 -17.123,-8.295 -3.321,-3.312 -8.484,-8.097 -10.901,-13.056 -16.36,0.93 -33.556,-3.023 -48.026,-10.434 -0.95,-0.485 -1.061,-1.982 -0.091,-2.521 14.873,-8.261 31.249,8.791 46.815,6.556 -0.704,-6.021 3.866,-13.547 8.584,-16.344 4.028,-2.389 12.175,-3.395 14.553,1.865 0.569,1.258 0.71,2.613 0.559,3.985 2.049,-2.11 5.981,-3.454 8.156,-4.056 5.162,-1.431 10.417,-1.929 15.502,0.025 0.472,0.181 0.777,0.887 0.619,1.36 -0.295,0.88 -0.643,1.743 -1.034,2.585 6.204,-3.839 13.882,-3.772 20.08,0.68 0.512,0.368 0.459,1.07 0.27,1.574 -0.172,0.463 -0.36,0.911 -0.555,1.35 7.27,-1.711 14.703,-0.99 20.889,3.548 0.618,0.453 0.495,1.377 0.075,1.894 -0.287,0.359 -0.614,0.729 -0.971,1.104 8.117,-0.746 15.702,2.123 22.385,7.052 0.806,0.595 0.425,1.715 -0.211,2.222 -5.451,4.333 -12.539,6.65 -19.457,6.008 C 3.891,-0.176 3.639,0.777 2.97,1.306 -3.051,6.058 -9.558,8.26 -16.699,7.36" /></g></g><g
       id="g287"
       transform="matrix(0.42363594,0,0,0.42363594,-138.41066,318.11444)"
       style="opacity:0.15;fill:#6fac37;fill-opacity:1;stroke:none;stroke-width:2.3605175;stroke-opacity:1"><g
         transform="translate(721.09663,698.7231)"
         id="g312"
         style="fill:#6fac37;fill-opacity:1;stroke:none;stroke-width:2.3605175;stroke-opacity:1"><path
           inkscape:connector-curvature="0"
           id="path314"
           style="fill:#6fac37;fill-opacity:1;fill-rule:nonzero;stroke:none;stroke-width:2.3605175;stroke-opacity:1"
           d="m 0,0 c -3.272,-0.974 -6.958,0.074 -10.608,1.224 1.534,1.957 2.562,4.291 2.479,6.832 -0.025,0.771 -1.091,0.736 -1.172,0 -0.262,-2.384 -1.502,-4.462 -2.986,-6.303 -1.143,0.358 -2.275,0.698 -3.382,0.957 0.28,0.343 0.548,0.69 0.802,1.042 4.708,6.51 5.412,16.087 2.196,23.36 -0.379,0.857 -0.807,1.656 -1.256,2.43 C -9.331,25.537 -0.606,17.264 0.394,16.322 5.759,11.27 10.188,3.033 0,0 m -19.008,3.18 c -0.675,-0.063 -1.058,-0.545 -1.147,-1.104 -0.726,-0.641 -1.494,-1.235 -2.31,-1.766 -3.373,-2.2 -6.84,-2.084 -10.598,-2.274 1.622,9.034 -2.275,19.428 -8.354,27.049 -6.694,8.394 -14.821,13.301 -23.577,15.503 15.228,4.247 38.206,3.149 47.896,-10.861 4.441,-6.42 4.578,-15.039 1.291,-21.95 -0.813,-1.711 -1.909,-3.246 -3.201,-4.597 m -25.681,-16.856 c 1.845,2.114 2.498,4.925 2.474,7.732 -0.006,0.648 -0.97,0.641 -1,0 -0.134,-2.819 -1.099,-5.417 -2.897,-7.602 -0.284,-0.346 -0.115,-0.766 0.185,-0.91 -0.311,-0.188 -0.621,-0.376 -0.941,-0.557 -2.116,-1.197 -4.27,-2.333 -6.437,-3.442 0.055,0.05 0.108,0.105 0.15,0.184 1.299,2.43 1.808,4.78 0.9,7.453 -0.196,0.578 -1.077,0.346 -0.92,-0.253 0.649,-2.472 -0.07,-4.328 -1.099,-6.546 -0.256,-0.551 0.258,-1.049 0.706,-0.972 -3.475,-1.771 -6.996,-3.453 -10.547,-5.056 1.135,2.279 0.995,5.33 0.877,7.701 -0.031,0.614 -0.922,0.613 -0.953,0 -0.075,-1.449 -0.158,-2.893 -0.418,-4.323 -0.278,-1.522 -1.049,-2.841 -1.514,-4.288 -2.128,-0.95 -4.375,-1.981 -6.693,-2.933 1.888,3.183 1.42,7.191 0.531,10.662 -0.144,0.559 -0.978,0.322 -0.86,-0.236 0.791,-3.723 0.719,-7.179 -1.001,-10.63 -0.064,-0.126 -0.07,-0.243 -0.048,-0.347 -3.386,-1.317 -6.884,-2.39 -10.315,-2.693 1.043,1.276 1.93,2.782 2.603,4.574 3.675,9.794 -1.672,21.381 -8.149,28.629 -9.029,10.105 -23.116,12.915 -36.01,10.441 -3.464,-0.664 -7.115,-1.863 -10.424,-3.634 11.416,12.141 25.336,22.132 41.27,27.309 18.065,5.867 35.618,2.51 49.386,-10.642 6.009,-5.74 9.908,-14.087 10.523,-22.346 0.593,-7.964 -3.335,-13.296 -9.379,-17.275 m -64.533,-27.103 c -1.054,-2.919 -1.821,-5.906 -2.65,-8.878 -0.003,-0.002 -0.006,-0.002 -0.009,-0.004 -2.403,-1.753 -4.973,-1.82 -7.767,-1.042 -0.314,0.087 -0.434,-0.377 -0.133,-0.483 2.459,-0.858 5.446,-1.308 7.569,0.33 -0.665,-2.313 -1.395,-4.611 -2.367,-6.854 -0.038,-0.088 -0.088,-0.174 -0.128,-0.262 -3.237,-1.031 -6.408,-1.234 -9.89,-0.543 -0.557,0.111 -0.797,-0.71 -0.236,-0.859 3.116,-0.827 6.227,-1.078 9.229,-0.338 -0.81,-1.41 -1.792,-2.771 -2.933,-3.999 -4.198,-1.796 -8.03,-1.428 -12,1.07 -0.333,0.21 -0.741,-0.301 -0.427,-0.552 2.659,-2.119 6.158,-3.67 9.406,-3.201 -3.054,-2.19 -6.691,-3.396 -10.447,-2.721 -6.824,1.226 -10.772,8.88 -12.721,14.763 -1.393,4.213 -1.769,8.651 -2.12,13.042 -0.156,1.96 -0.243,3.926 -0.284,5.892 -0.011,0.499 -0.021,2.057 0.025,3.07 0.179,0.092 0.348,0.223 0.491,0.409 7.703,9.992 23.977,2.67 33.319,-0.525 1.544,-0.528 4.819,-1.226 5.499,-2.974 0.536,-1.379 -0.972,-4.085 -1.426,-5.341 M 5.136,15.181 c -4.252,5.123 -10.271,9.965 -15.589,14.002 -0.122,0.092 -3.483,2.492 -5.285,3.054 -4.798,6.149 -12.127,9.296 -19.985,11.222 -9.838,2.411 -22.272,2.979 -31.379,-2.161 -0.092,-0.053 -0.157,-0.122 -0.207,-0.198 -25.926,5.075 -56.636,-12.437 -72.012,-33.042 -0.136,-0.183 -0.125,-0.375 -0.045,-0.542 -2.115,-1.467 -3.996,-3.206 -5.456,-5.246 -6.594,-9.212 -2.338,-21 -4.54,-31.37 -0.164,-0.775 0.907,-1.057 1.175,-0.324 2.913,7.957 0.55,16.501 2.322,24.668 1.8,8.298 10.445,12.781 17.884,14.884 12.153,3.436 25.78,0.739 34.927,-8.092 6.391,-6.169 10.821,-15.844 9.346,-24.825 -1.846,-11.242 -13.53,-12.281 -22.703,-10.154 -0.111,0.025 -0.218,0.038 -0.32,0.039 -0.424,0.422 -0.954,0.824 -1.637,1.197 -6.167,3.369 -14.393,5.92 -21.342,6.832 -6.982,0.916 -14.778,0.477 -19.225,-5.709 -0.55,-0.766 -0.136,-1.48 0.522,-1.776 -0.073,-0.274 -0.125,-0.519 -0.147,-0.688 -0.716,-5.544 -0.338,-12.004 0.816,-17.481 1.618,-7.67 4.743,-15.276 11.789,-19.433 7.126,-4.204 14.725,0.254 19.769,5.45 5.671,5.842 6.458,14.716 8.992,22.045 0.805,2.331 1.823,4.561 1.773,6.534 6.55,-1.209 13.533,-0.874 18.454,2.833 0.222,-0.371 0.618,-0.632 1.193,-0.615 6.984,0.217 13.951,3.572 20.253,6.29 7.614,3.284 15.121,6.992 22.267,11.203 5.102,3.006 8.119,7.086 9.549,11.645 5.623,-1.57 11.441,0.948 15.669,4.804 7.681,-0.775 16.745,-6.688 23.617,-0.512 5.42,4.871 3.783,10.37 -0.445,15.466" /></g><g
         transform="translate(705.4219,689)"
         id="g316"
         style="fill:#6fac37;fill-opacity:1;stroke:none;stroke-width:2.3605175;stroke-opacity:1"><path
           inkscape:connector-curvature="0"
           id="path318"
           style="fill:#6fac37;fill-opacity:1;fill-rule:nonzero;stroke:none;stroke-width:2.3605175;stroke-opacity:1"
           d="M 0,0 C -0.121,-1.884 -1.131,-3.469 -2.797,-4.359 -3.641,-4.811 -2.891,-6.092 -2.047,-5.641 0.074,-4.507 1.201,-2.382 1.156,0 1.143,0.751 0.048,0.738 0,0" /></g></g><g
       id="g297"
       transform="matrix(0.42363594,0,0,0.42363594,55.585665,412.72941)"
       style="opacity:0.15;fill:#6fac37;fill-opacity:1;stroke:none;stroke-width:2.3605175;stroke-opacity:1"><g
         transform="translate(466.8164,254.2969)"
         id="g180"
         style="fill:#6fac37;fill-opacity:1;stroke:none;stroke-width:2.3605175;stroke-opacity:1"><path
           inkscape:connector-curvature="0"
           id="path182"
           style="fill:#6fac37;fill-opacity:1;fill-rule:nonzero;stroke:none;stroke-width:2.3605175;stroke-opacity:1"
           d="m 0,0 c -18.926,-11.644 -40.193,-14.123 -61.977,-14.176 -15.283,-0.038 -30.586,0.5 -45.869,0.69 -12.285,0.153 -24.643,1.093 -36.469,4.605 -10.532,3.129 -24.575,10.354 -27.721,21.883 -2.468,9.047 8.399,16.296 14.506,20.691 5.121,3.685 10.632,7.034 14.891,11.754 -0.035,-0.626 -0.076,-1.252 -0.11,-1.879 -0.185,-0.237 -0.21,-0.59 -0.043,-0.867 -0.04,-0.772 -0.073,-1.545 -0.109,-2.318 -7.287,-5.893 -30.955,-19.363 -19.418,-30.487 3.143,-3.03 7.744,-4.608 11.766,-6.024 7.08,-2.492 14.474,-4.099 21.856,-5.384 14.017,-2.439 28.292,-3.079 42.478,-3.771 24.465,-1.196 49.954,0.767 73.251,8.877 7.403,2.576 15.868,6.624 17.209,15.131 1.347,8.543 -6.149,15.195 -14.076,15.736 0.421,1.31 0.721,2.673 0.898,4.092 C 0.955,35.662 14.092,31.177 14.762,19.155 15.245,10.465 6.521,4.013 0,0 m -142.469,20.737 c 0.421,-1.198 1.904,-1.114 2.39,-0.272 15.006,-3.422 29.907,-7.598 45.219,-9.414 15.43,-1.831 31.047,-1.381 46.561,-1.313 0.117,-0.361 0.361,-0.685 0.756,-0.83 9.451,-3.466 20.289,4.973 26.882,10.758 4.288,3.764 7.735,7.693 9.799,12.188 0.181,-0.102 0.393,-0.17 0.643,-0.185 5.633,-0.317 9.996,-3.608 11.5,-9.107 C 2.74,17.226 -0.891,13.141 -4.95,10.449 -11.494,6.11 -19.774,4.232 -27.335,2.538 -48.769,-2.264 -69.751,-3.338 -91.64,-2.296 c -11.546,0.55 -23.08,1.301 -34.518,3.025 -10.668,1.609 -22.491,3.793 -31.984,9.132 -14.073,7.912 7.585,22.004 15.149,28.605 -0.074,-1.724 -0.14,-3.448 -0.189,-5.173 -0.111,-3.947 -0.627,-8.748 0.713,-12.556 m 87.481,58.158 c 1.018,0.71 2.793,-0.051 3.8,-0.401 3.319,-1.154 6.484,-3.531 6.965,-7.189 0.377,-2.867 -0.124,-5.92 -0.277,-8.907 -2.979,0.04 -5.952,0.004 -8.903,0.302 -0.167,0.238 -0.431,0.417 -0.816,0.438 -0.047,0.003 -0.093,0.004 -0.139,0.007 -0.583,3.672 -1.368,7.15 -1.608,9.644 -0.159,1.655 -0.639,4.979 0.978,6.106 M -67.465,63.722 c -0.536,2.184 -1.071,4.37 -1.484,6.587 -0.366,1.965 -0.561,3.941 -0.468,5.939 0.139,3.021 2.694,3.023 4.105,0.842 2.041,-3.153 2.161,-7.856 2.449,-11.453 0.037,-0.465 0.058,-0.93 0.088,-1.395 -0.753,-0.013 -1.526,-0.112 -2.164,-0.167 -0.716,-0.061 -1.426,-0.141 -2.139,-0.229 -0.143,-0.019 -0.268,-0.068 -0.387,-0.124 m 0.387,-1.402 c 0.713,-0.088 1.423,-0.168 2.139,-0.229 0.677,-0.058 1.504,-0.165 2.3,-0.167 0.145,-3.151 0.195,-6.306 0.321,-9.455 0.088,-2.209 0.098,-4.623 0.823,-6.739 0.224,-0.652 0.913,-1.164 1.628,-0.923 6.168,2.065 7.029,8.745 6.26,15.449 3.121,-0.439 6.791,-0.525 9.791,-0.487 V 59.76 c 0,-6.534 5.744,-12.93 -0.055,-18.676 -0.09,-0.088 -0.332,-0.188 -0.393,-0.289 -2.515,-0.296 -5.108,-0.649 -7.669,-0.72 -4.03,-0.111 -8.088,0.12 -12.11,-0.163 0.111,6.489 -1.051,13.365 -2.331,19.264 -0.229,1.057 -0.486,2.109 -0.742,3.158 0.017,-0.002 0.02,-0.011 0.038,-0.014 M -140.64,31.077 c 5.146,-0.952 10.276,-1.464 15.523,-1.686 6.621,-0.283 13.715,-1.016 20.301,-0.446 0.808,0.071 1.084,1.285 0.201,1.489 -5.425,1.252 -11.355,0.796 -16.901,0.873 -6.371,0.087 -12.74,0.214 -19.092,0.723 0.039,1.022 0.083,2.033 0.113,3.024 0.01,0.318 0.028,0.636 0.039,0.955 6.038,-0.238 12.076,-0.174 18.117,-0.258 6.948,-0.096 13.642,-1.228 20.523,-1.915 1.041,-0.105 1.081,1.385 0.23,1.703 -5.893,2.211 -12.745,2.22 -18.959,2.37 -6.623,0.159 -13.242,-0.137 -19.853,-0.485 0.055,1.42 0.105,2.841 0.173,4.26 8.706,-2.377 17.969,0.249 26.863,0.107 12.32,-0.197 24.452,-2.935 36.783,-3.022 -0.293,-5.634 -0.757,-13.182 2.126,-17.553 3.787,-5.743 9.047,8.94 9.488,10.852 0.451,1.961 0.706,4.03 0.819,6.151 6.373,-0.733 14.28,-1.758 20.672,-0.014 6.564,-8.184 1.851,-17.59 -2.686,-25.791 -15.642,-0.045 -31.299,-0.456 -46.893,1.041 -15.784,1.514 -31.141,7.78 -46.961,8.19 -0.723,3.012 -0.73,6.257 -0.626,9.432 m 65.147,29.734 c 0.233,-6.61 -0.734,-13.589 -0.963,-19.399 -11.748,0.242 -23.322,2.373 -35.048,2.877 -9.479,0.407 -19.266,-2.805 -28.638,-0.95 0.222,4.333 0.483,8.665 0.715,12.997 0.161,3.006 0.313,6.014 0.439,9.023 21.154,-1.05 42.306,-4.66 63.495,-4.548 m -35.323,11.955 c -9.346,0.062 -18.655,0.006 -27.935,1.161 0.013,1.005 0.033,2.009 0.031,3.012 -0.002,0.803 0.011,1.668 0.015,2.559 7.26,1.344 14.419,0.24 21.637,-1.071 5.841,-1.062 12.569,-2.781 18.48,-1.553 1.017,0.212 0.672,1.599 -0.228,1.689 -7.622,0.755 -15.154,1.533 -22.767,2.563 -5.79,0.784 -11.517,0.918 -17.123,-0.673 -0.013,1.834 -0.105,3.744 -0.498,5.494 5.732,-1.047 11.563,-1.271 17.377,-1.666 4.05,-0.275 8.084,-0.65 12.098,-1.267 1.992,-0.307 4.862,-1.815 6.82,-0.746 3.692,2.015 5.344,0.724 8.18,-1.836 1.543,-1.393 2.877,-1.725 4.944,-2.039 4.978,-0.757 8.065,1.082 11.205,-4.487 1.75,-3.103 2.585,-6.724 2.926,-10.538 -21.098,0.412 -42.175,4.197 -63.272,3.433 0.076,1.993 0.128,3.986 0.163,5.98 9.2,-1.879 18.559,-2.199 27.947,-2.14 1.37,0.008 1.37,2.115 0,2.125 m -22.434,19.939 c 4.342,1.776 9.021,2.787 13.613,3.668 8.345,1.604 16.849,1.745 25.197,3.154 8.083,1.365 19.32,3.768 25.555,-2.923 4.515,-4.848 8.205,-7.948 14.895,-5.858 5.09,-5.394 14.916,-8.06 19.636,-0.945 1.516,2.287 2.152,5.224 2.106,8.258 1.01,0.024 2.04,0.163 3.029,0.227 0.567,0.037 0.809,0.497 0.75,0.915 5.899,-1.166 12.674,-4.382 12.664,-10.859 -0.007,-4.637 -2.191,-8.268 -1.265,-13.034 0.901,-4.637 3.076,-8.774 3.568,-13.535 0.463,-4.492 0.54,-8.837 1.36,-13.308 0.753,-4.109 1.433,-8.055 0.515,-12.196 -1.144,-5.173 -5.26,-9.219 -8.916,-12.785 -6.449,-6.291 -13.993,-11.636 -22.901,-12.22 4.95,9.088 9.219,19.053 2.764,27.942 0.707,0.343 0.576,1.352 0.012,1.744 2.239,3.268 2.178,6.808 1.051,10.992 -0.941,3.497 -1.969,6.601 -2.344,10.238 -0.246,2.381 0.285,4.843 0.456,7.213 0.473,6.564 -7.319,14.32 -14.147,12.106 -4.899,-1.589 -2.867,-10.086 -2.344,-13.591 0.179,-1.2 0.517,-2.822 0.845,-4.635 l -0.068,0.003 c -1.35,0.054 -1.621,-2.024 -0.317,-2.343 0.264,-0.065 0.53,-0.117 0.796,-0.174 0.728,-5.011 0.862,-10.611 -2.594,-12.812 -0.473,2.367 -0.362,4.961 -0.437,7.301 -0.146,4.5 -0.259,8.996 -0.735,13.475 -0.488,4.586 -1.424,12.425 -7.378,12.713 -6.319,0.302 -3.859,-10.657 -3.215,-13.832 1.753,-8.657 3.654,-16.826 4.104,-25.735 0.317,-6.294 -0.721,-11.75 -3.849,-17.262 -1.33,-2.343 -1.787,-1.771 -2.294,0.413 -0.524,2.253 -0.583,4.645 -0.688,6.947 -0.426,9.421 0.714,18.804 0.472,28.222 -0.189,7.367 -1.376,18.174 -9.798,20.635 -1.108,0.324 -2.361,0.047 -3.474,-0.073 -3.342,-0.362 -5.832,0.862 -8.243,3.058 -1.2,1.091 -2.425,2.077 -4.033,2.425 -2.458,0.535 -4.136,-2.211 -6.724,-1.611 -11.057,2.561 -22.798,2.194 -34.101,3.061 -0.149,0.384 -0.318,0.755 -0.512,1.109 1.968,1.767 4.575,2.926 6.989,3.912 m 63.074,8.623 c 2.623,3.811 6.24,7.065 10.109,9.565 1.96,1.266 4.171,2.267 6.526,2.378 2.144,0.101 3.105,-1.273 3.793,-2.899 -0.126,-0.132 -0.251,-0.244 -0.377,-0.384 -0.691,-0.761 -0.172,-2 0.643,-2.215 -4.91,-4.088 -8.829,-9.867 -5.987,-15.027 -4.169,-0.574 -7.068,-0.109 -10.22,3.498 -1.603,1.835 -3.102,3.5 -5.056,4.751 0.207,0.015 0.415,0.109 0.569,0.333 m 27.872,9.397 c 1.796,0.017 3.487,-0.873 4.984,-3.225 2.562,-4.025 3.005,-9.643 1.669,-14.143 -1.897,-6.392 -8.269,-6.079 -13.287,-3.563 -1.449,0.727 -2.527,1.53 -3.312,2.386 -0.041,0.379 -0.283,0.721 -0.682,0.849 -3.942,5.91 4.877,13.892 10.628,17.696 M 16.982,22.959 C 14.342,34.257 1.045,38.55 -8.757,41.396 c 0.006,1.318 -0.087,2.682 -0.3,4.104 -0.894,5.982 -1.519,11.854 -2.169,17.855 -0.727,6.731 -4.928,12.165 -3.43,19.161 1.037,4.844 2.222,9.629 -1.94,13.369 -3.977,3.575 -9.423,4.808 -14.623,4.667 -0.318,-0.009 -0.462,-0.242 -0.449,-0.476 -0.236,0.016 -0.474,0.026 -0.709,0.029 -0.316,2.778 -1.168,5.534 -2.428,7.846 10.464,4.266 9.555,21.34 5.665,29.763 -0.591,1.282 -2.781,0.36 -2.284,-0.964 3.432,-9.143 4.339,-21.119 -4.165,-27.501 -2.887,4.338 -7.347,6.478 -12.232,2.851 -1.683,2.821 -5.472,3.873 -9.029,2.749 -5.878,-1.858 -11.767,-7.384 -14.607,-12.771 -0.125,-0.235 -0.116,-0.454 -0.039,-0.636 -0.375,0.206 -0.764,0.402 -1.176,0.578 -6.476,2.751 -15.655,0.608 -22.324,-0.477 -8.354,-1.358 -16.826,-2.029 -25.173,-3.566 -7.47,-1.375 -16.341,-3.274 -21.984,-9.274 h -0.066 c -0.184,0 -0.269,0.158 -0.251,0.01 -0.116,-0.119 -0.239,-0.067 -0.353,-0.189 -0.191,-0.207 -0.334,-0.468 -0.219,-0.75 0.595,-1.476 0.985,-1.932 1.555,-1.962 0.812,-3.349 0.388,-7.45 0.346,-10.599 -0.005,-0.413 -0.024,-0.825 -0.032,-1.237 -0.142,-0.179 -0.163,-0.43 -0.015,-0.596 -0.143,-6.401 -0.552,-12.793 -0.939,-19.183 -0.155,-2.541 -0.3,-5.078 -0.446,-7.618 -0.281,0.371 -0.819,0.544 -1.254,0.11 -9.199,-9.191 -31.47,-16.549 -30.77,-32.253 0.391,-8.791 9.682,-15.971 16.448,-20.151 9.524,-5.883 20.932,-8.172 31.895,-9.465 12.869,-1.518 25.899,-1.038 38.827,-1.318 16.186,-0.352 32.379,-0.984 48.53,0.525 16.189,1.512 33.735,7.888 46.565,17.94 6.524,5.111 11.303,12.482 9.314,20.992" /></g><g
         transform="translate(444.5352,342.1475)"
         id="g508"
         style="fill:#6fac37;fill-opacity:1;stroke:none;stroke-width:2.3605175;stroke-opacity:1"><path
           inkscape:connector-curvature="0"
           id="path510"
           style="fill:#6fac37;fill-opacity:1;fill-rule:nonzero;stroke:none;stroke-width:2.3605175;stroke-opacity:1"
           d="m 0,0 c -0.199,0.698 -1.193,0.398 -1.07,-0.295 1.524,-8.555 1.288,-17.72 3.752,-26.068 0.25,-0.847 1.711,-0.722 1.595,0.216 C 3.218,-17.523 2.39,-8.378 0,0" /></g></g><g
       id="g275"
       transform="matrix(0.42363594,0,0,0.42363594,142.43604,543.82983)"
       style="opacity:0.15;fill:#6fac37;fill-opacity:1;stroke:none;stroke-width:2.3605175;stroke-opacity:1"><g
         transform="translate(454.4229,127.5439)"
         id="g532"
         style="fill:#6fac37;fill-opacity:1;stroke:none;stroke-width:2.3605175;stroke-opacity:1"><path
           inkscape:connector-curvature="0"
           id="path534"
           style="fill:#6fac37;fill-opacity:1;fill-rule:nonzero;stroke:none;stroke-width:2.3605175;stroke-opacity:1"
           d="m 0,0 c -3.721,-6.216 -10.633,-8.657 -17.408,-9.893 0.881,2.399 1.42,5.008 1.521,7.834 0.239,6.586 -1.396,14.183 -5.961,19.126 -1.886,2.044 -4.277,3.266 -6.857,3.924 0.332,0.087 0.619,0.325 0.73,0.778 1.315,5.344 1.819,11.327 2.299,16.828 0.237,2.722 0.162,5.418 -0.318,8.022 C -11.982,43.494 -1.168,31.736 2.215,17.951 3.697,11.915 3.225,5.389 0,0 m -80.028,-20.115 c -4.05,1.627 -10.313,4.594 -11.537,9.375 1.396,0.487 2.759,1.082 4.075,1.802 0.932,0.51 0.589,1.854 -0.24,2.134 20.891,14.493 64.603,44.614 68.884,9.096 3.901,-32.363 -41.501,-30.313 -61.182,-22.407 M -129.32,2.598 c -12.174,13.302 1.297,25.441 12.959,32.344 11.174,6.614 24.046,11.286 36.972,12.768 6.94,0.796 14.074,-0.181 19.297,-5.156 6.473,-6.168 7.992,-17.036 6.83,-25.679 -5.976,-2.626 -11.696,-5.993 -17.056,-9.261 -7.743,-4.72 -15.189,-9.95 -22.284,-15.605 -13.325,-3.171 -27.036,0.01 -36.718,10.589 m -20.129,26.991 c -0.106,2.312 0.336,4.505 1.145,6.57 0.229,0.245 0.381,0.576 0.397,0.927 1.94,4.289 5.41,8.004 8.792,11.05 5.184,4.671 11.762,8.993 18.908,9.449 0.246,0.016 0.475,10e-4 0.713,0.003 0.268,-0.218 0.662,-0.247 0.897,-0.006 7.367,-0.48 11.091,-7.67 13.075,-14.176 -5.028,-2.223 -9.825,-4.789 -14.185,-7.448 -7.388,-4.509 -14.865,-11.281 -16.677,-19.052 -6.842,1.561 -12.709,4.924 -13.065,12.683 m 1.719,36.727 c 7.62,9.531 24.979,5.347 27.656,-6.297 -7.847,-0.178 -15.019,-5.186 -20.763,-10.161 -3.358,-2.907 -6.432,-6.403 -8.458,-10.344 -5.148,8.015 -4.366,19.387 1.565,26.802 m 75.939,-0.927 c 14.344,-0.533 32.469,0.696 41.139,-13.108 5.966,-9.5 -0.438,-20.217 0.422,-30.207 0.031,-0.369 0.226,-0.651 0.478,-0.847 -2.74,0.534 -5.643,0.488 -8.352,0.133 -4.73,-0.619 -9.361,-2.052 -13.853,-3.929 1.881,8.064 0.334,16.637 -4.025,23.73 -2.278,3.703 -5.609,6.113 -9.398,7.554 -1.433,5.786 -3.505,11.614 -6.411,16.674 M 22.883,2.719 c -1.455,9.475 -9.195,16.17 -17.59,19.712 -0.604,0.254 -1.137,-0.033 -1.457,-0.497 -4.295,13.407 -15.639,24.555 -29.549,27.481 -0.363,0.076 -0.68,0.017 -0.943,-0.123 -0.557,1.805 -1.326,3.556 -2.379,5.218 -9.016,14.232 -29.026,13.045 -43.561,12.224 -5.7,9.164 -14.349,15.402 -27.163,13.456 -6.815,-1.034 -12.617,-4.131 -18.383,-7.84 -0.83,-0.535 -6.225,-5.669 -1.94,-5.143 0.609,0.075 0.931,0.628 0.824,1.097 0.086,0.057 0.194,0.136 0.354,0.264 0.677,0.537 1.377,1.022 2.094,1.503 1.916,1.286 3.947,2.408 5.974,3.507 5.183,2.814 9.918,4.163 15.911,4.381 17.004,0.619 22.155,-15.709 27.392,-28.545 -2.273,0.63 -4.659,0.961 -7.049,1.044 -9.417,0.325 -19.323,-2.214 -28.557,-6.03 -2.079,6.98 -6.294,14.483 -14.22,15.47 -0.297,0.038 -0.591,0.048 -0.887,0.071 -0.136,5.857 -6.173,10.478 -11.072,12.758 -5.547,2.58 -12.471,1.886 -17.283,-1.942 -9.997,-7.954 -11.174,-23.825 -3.86,-33.903 -1.064,-2.873 -1.54,-5.947 -1.15,-9.183 0.925,-7.661 7.858,-11.699 14.947,-12.314 -0.535,-4.014 0.484,-8.263 3.834,-12.585 8.393,-10.826 24.643,-17.643 38.471,-14.355 1.096,-7.777 13.563,-11.802 19.609,-13.566 12.266,-3.577 26.172,-4.354 38.535,-0.867 8.215,2.316 14.813,7.262 18.09,14.368 C -2.98,-10.754 7.686,0.517 5.227,16.097 5.033,17.325 4.771,18.541 4.461,19.744 12.734,16.083 19.404,9.831 20.477,0.45 21.494,-8.446 16.441,-16.838 9.543,-22.03 c -7.803,-5.871 -15.813,-6.169 -25.01,-4.773 -3.928,0.597 -7.836,1.311 -11.756,1.952 -1.576,0.259 -3.394,0.71 -4.902,-0.001 -0.064,-0.03 -0.047,-0.114 0,-0.148 2.074,-1.496 4.678,-1.866 7.139,-2.451 4.873,-1.159 9.855,-1.965 14.83,-2.544 9.592,-1.116 18.638,2.735 25.426,9.516 6.084,6.078 8.914,14.741 7.613,23.198" /></g><g
         transform="translate(374,167.9297)"
         id="g536"
         style="fill:#6fac37;fill-opacity:1;stroke:none;stroke-width:2.3605175;stroke-opacity:1"><path
           inkscape:connector-curvature="0"
           id="path538"
           style="fill:#6fac37;fill-opacity:1;fill-rule:nonzero;stroke:none;stroke-width:2.3605175;stroke-opacity:1"
           d="m 0,0 c -17.566,-0.091 -30.164,-14.141 -44.213,-22.565 -0.47,-0.283 -0.058,-0.97 0.426,-0.729 7.179,3.574 13.482,8.448 20.187,12.795 7.544,4.89 14.979,7.452 23.847,8.673 C 1.306,-1.681 1.021,0.005 0,0" /></g><g
         transform="translate(419,140.8203)"
         id="g540"
         style="fill:#6fac37;fill-opacity:1;stroke:none;stroke-width:2.3605175;stroke-opacity:1"><path
           inkscape:connector-curvature="0"
           id="path542"
           style="fill:#6fac37;fill-opacity:1;fill-rule:nonzero;stroke:none;stroke-width:2.3605175;stroke-opacity:1"
           d="m 0,0 c -10.047,0.981 -20.943,-5.244 -28.304,-11.517 -0.375,-0.319 0.112,-0.93 0.521,-0.674 3.883,2.426 7.764,4.704 11.922,6.636 5.212,2.424 10.483,3.087 16.079,3.944 C 1.2,-1.461 0.849,-0.083 0,0" /></g><g
         transform="translate(433.5937,168)"
         id="g544"
         style="fill:#6fac37;fill-opacity:1;stroke:none;stroke-width:2.3605175;stroke-opacity:1"><path
           inkscape:connector-curvature="0"
           id="path546"
           style="fill:#6fac37;fill-opacity:1;fill-rule:nonzero;stroke:none;stroke-width:2.3605175;stroke-opacity:1"
           d="m 0,0 c -0.036,0.771 -1.132,0.76 -1.187,0 -0.164,-2.239 -0.491,-4.46 -0.81,-6.681 -0.199,-1.387 -0.744,-3.137 -0.268,-4.504 0.24,-0.685 1.085,-0.634 1.342,0 0.522,1.293 0.445,2.906 0.597,4.279 C -0.072,-4.606 0.107,-2.314 0,0" /></g><g
         transform="translate(464.5752,132.248)"
         id="g548"
         style="fill:#6fac37;fill-opacity:1;stroke:none;stroke-width:2.3605175;stroke-opacity:1"><path
           inkscape:connector-curvature="0"
           id="path550"
           style="fill:#6fac37;fill-opacity:1;fill-rule:nonzero;stroke:none;stroke-width:2.3605175;stroke-opacity:1"
           d="m 0,0 c -1.36,-3.038 -3.092,-5.664 -5.349,-8.118 -2.017,-2.195 -4.591,-3.617 -6.756,-5.6 -0.534,-0.487 0.02,-1.527 0.729,-1.254 5.696,2.198 10.694,8.859 12.275,14.593 C 1.044,0.146 0.232,0.52 0,0" /></g><g
         transform="translate(403.7627,170.4453)"
         id="g552"
         style="fill:#6fac37;fill-opacity:1;stroke:none;stroke-width:2.3605175;stroke-opacity:1"><path
           inkscape:connector-curvature="0"
           id="path554"
           style="fill:#6fac37;fill-opacity:1;fill-rule:nonzero;stroke:none;stroke-width:2.3605175;stroke-opacity:1"
           d="m 0,0 c -2.212,4.356 -5.984,7.677 -10.84,8.283 0.572,4.063 -0.184,8.056 -2.43,11.56 -0.396,0.616 -1.347,0.068 -0.985,-0.576 1.968,-3.505 2.535,-7.571 1.709,-11.496 C -12.66,7.23 -12.309,6.78 -11.763,6.742 -6.892,6.404 -3.812,3.112 -1.525,-0.891 -0.957,-1.886 0.512,-1.009 0,0" /></g></g></g></svg>