<?xml version="1.0" encoding="UTF-8" standalone="no"?>
<!-- Created with Inkscape (http://www.inkscape.org/) -->

<svg
   xmlns:dc="http://purl.org/dc/elements/1.1/"
   xmlns:cc="http://creativecommons.org/ns#"
   xmlns:rdf="http://www.w3.org/1999/02/22-rdf-syntax-ns#"
   xmlns:svg="http://www.w3.org/2000/svg"
   xmlns="http://www.w3.org/2000/svg"
   xmlns:sodipodi="http://sodipodi.sourceforge.net/DTD/sodipodi-0.dtd"
   xmlns:inkscape="http://www.inkscape.org/namespaces/inkscape"
   width="76.546448mm"
   height="70.603928mm"
   viewBox="0 0 76.546448 70.603928"
   version="1.1"
   id="svg8"
   inkscape:version="0.92.2 (5c3e80d, 2017-08-06)"
   sodipodi:docname="drawing.svg">
  <title
     id="title3790">houseFreshLogo</title>
  <defs
     id="defs2" />
  <sodipodi:namedview
     id="base"
     pagecolor="#ffffff"
     bordercolor="#666666"
     borderopacity="1.0"
     inkscape:pageopacity="0.0"
     inkscape:pageshadow="2"
     inkscape:zoom="0.35"
     inkscape:cx="244.67578"
     inkscape:cy="-223.0548"
     inkscape:document-units="mm"
     inkscape:current-layer="layer1"
     showgrid="false"
     fit-margin-top="0"
     fit-margin-left="0"
     fit-margin-right="0"
     fit-margin-bottom="0"
     inkscape:window-width="1366"
     inkscape:window-height="705"
     inkscape:window-x="-8"
     inkscape:window-y="-8"
     inkscape:window-maximized="1" />
  <metadata
     id="metadata5">
    <rdf:RDF>
      <cc:Work
         rdf:about="">
        <dc:format>image/svg+xml</dc:format>
        <dc:type
           rdf:resource="http://purl.org/dc/dcmitype/StillImage" />
        <dc:title>houseFreshLogo</dc:title>
      </cc:Work>
    </rdf:RDF>
  </metadata>
  <g
     inkscape:label="Layer 1"
     inkscape:groupmode="layer"
     id="layer1"
     transform="translate(-41.096201,-19.21282)">
    <g
       id="g3788">
      <path
         inkscape:connector-curvature="0"
         id="path3699"
         style="fill:#68a822;fill-rule:evenodd;stroke-width:0.26458332"
         d="M 71.94204,54.562663 56.123026,70.381915 c -1.43383,1.432851 -1.43383,3.756422 0,5.189511 1.433089,1.433565 3.756634,1.43383 5.189485,0 L 77.132504,59.752174 Z" />
      <path
         inkscape:connector-curvature="0"
         id="path3701"
         style="fill:#68a822;fill-rule:evenodd;stroke-width:0.26458332"
         d="m 111.64084,29.445106 c -0.9216,-0.754248 -2.2946,-0.592032 -3.13714,0.248814 l -9.433322,9.434301 -1.642507,-1.642269 9.433559,-9.434301 c 0.84254,-0.840846 1.0038,-2.214589 0.24956,-3.136185 -0.86662,-1.059736 -2.43351,-1.118103 -3.37723,-0.174149 l -9.52526,9.525026 -1.642269,-1.642268 9.433319,-9.434301 c 0.84278,-0.84156 1.00404,-2.214589 0.2498,-3.135921 -0.86662,-1.059736 -2.433482,-1.118129 -3.377463,-0.174387 l -9.525,9.525264 -3.099461,3.099197 c -1.904709,1.904947 -1.904709,4.993931 0,6.899619 l 0.427355,0.426614 -6.510946,6.510708 5.189511,5.190464 6.510946,-6.510946 0.426614,0.426376 c 1.905688,1.904947 4.994672,1.904947 6.899381,2.38e-4 L 111.81499,32.8223 c 0.94371,-0.943715 0.88632,-2.510578 -0.17415,-3.377194 z" />
      <path
         inkscape:connector-curvature="0"
         id="path3703"
         style="fill:#68a822;fill-rule:evenodd;stroke-width:0.26458332"
         d="m 48.906966,23.305794 c -4.19227,4.193249 -3.315176,11.869499 1.961382,17.144603 4.126336,4.127314 9.715712,5.548973 13.963915,3.971157 l 29.707522,29.707522 c 1.432851,1.431899 3.756395,1.431899 5.190225,0 1.43309,-1.433089 1.43309,-3.757612 0,-5.190463 L 70.022726,39.23207 C 71.600543,34.982888 70.179598,29.393539 66.052521,25.266462 60.7762,19.991094 53.100929,19.112571 48.906966,23.305794 Z" />
      <path
         inkscape:connector-curvature="0"
         id="path3705"
         style="fill:#68a822;fill-rule:evenodd;stroke-width:0.26458332"
         d="m 104.82173,53.685834 h -7.9e-4 c 3.54115,3.541156 9.28155,3.541156 12.82171,0 v 0 c -3.54016,-3.540416 -9.28056,-3.540152 -12.82097,0 z" />
      <path
         inkscape:connector-curvature="0"
         id="path3707"
         style="fill:#68a822;fill-rule:evenodd;stroke-width:0.26458332"
         d="m 102.16616,51.640313 v 0 c 5.00756,0 9.06605,-4.059475 9.06605,-9.066053 v -2.38e-4 c -5.00681,0 -9.06605,4.059449 -9.06605,9.066291 z" />
      <path
         inkscape:connector-curvature="0"
         id="path3709"
         style="fill:#68a822;fill-rule:evenodd;stroke-width:0.26458332"
         d="m 102.16616,55.732359 v 0 c 5.00756,0 9.06605,4.059449 9.06605,9.066292 v -2.38e-4 c -5.00681,0 -9.06605,-4.058497 -9.06605,-9.066054 z" />
      <path
         inkscape:connector-curvature="0"
         id="path3711"
         style="fill:#68a822;fill-rule:evenodd;stroke-width:0.26458332"
         d="m 79.36945,76.994778 v 0 c -3.540416,3.541157 -3.540416,9.281557 0,12.821973 v 0 c 3.540178,-3.540416 3.540178,-9.280578 0,-12.821973 z" />
      <path
         inkscape:connector-curvature="0"
         id="path3713"
         style="fill:#68a822;fill-rule:evenodd;stroke-width:0.26458332"
         d="m 81.415737,74.339949 v 0 c 0,5.007584 4.05945,9.066292 9.066292,9.066292 v 0 c 0,-5.007557 -4.058735,-9.066292 -9.066292,-9.066292 z" />
      <path
         inkscape:connector-curvature="0"
         id="path3715"
         style="fill:#68a822;fill-rule:evenodd;stroke-width:0.26458332"
         d="m 77.323665,74.339949 v 0 c 0,5.007584 -4.059449,9.066292 -9.066027,9.066292 v 0 c 0,-5.007557 4.05847,-9.066292 9.066027,-9.066292 z" />
      <path
         inkscape:connector-curvature="0"
         id="path3717"
         style="fill:#68a822;fill-rule:evenodd;stroke-width:0.26458332"
         d="m 53.917936,53.685834 v 0 c -3.540416,-3.540416 -9.281319,-3.540152 -12.821735,0 h 2.65e-4 c 3.540151,3.541156 9.281054,3.541156 12.82147,0 z" />
      <path
         inkscape:connector-curvature="0"
         id="path3719"
         style="fill:#68a822;fill-rule:evenodd;stroke-width:0.26458332"
         d="m 56.572765,55.732359 v 0 c -5.006843,0 -9.065339,4.059449 -9.065339,9.066292 v -2.38e-4 c 5.006604,0 9.065339,-4.058497 9.065339,-9.066054 z" />
      <path
         inkscape:connector-curvature="0"
         id="path3721"
         style="fill:#68a822;fill-rule:evenodd;stroke-width:0.26458332"
         d="m 56.572765,51.640313 v 0 c -5.006843,0 -9.065339,-4.059475 -9.065339,-9.066053 v -2.38e-4 c 5.006604,0 9.065339,4.059449 9.065339,9.066291 z" />
      <path
         inkscape:connector-curvature="0"
         id="path3723"
         style="fill:#84756f;fill-rule:evenodd;stroke-width:0.26458332"
         d="m 60.364429,53.685834 c 0,0.798036 -0.646271,1.444281 -1.443328,1.444281 -0.797057,-2.38e-4 -1.444017,-0.646245 -1.444017,-1.444281 0,-0.796317 0.64696,-1.443064 1.444017,-1.443064 0.797322,-2.38e-4 1.443328,0.646985 1.443328,1.443064 z" />
      <path
         inkscape:connector-curvature="0"
         id="path3725"
         style="fill:#84756f;fill-rule:evenodd;stroke-width:0.26458332"
         d="m 79.36945,70.585274 c 0.798036,0 1.444043,0.646006 1.444043,1.443302 0,0.797057 -0.646245,1.443064 -1.444043,1.443064 -0.797295,0 -1.443302,-0.646007 -1.443302,-1.443064 0,-0.797296 0.646007,-1.443302 1.443302,-1.443302 z" />
      <path
         inkscape:connector-curvature="0"
         id="path3727"
         style="fill:#84756f;fill-rule:evenodd;stroke-width:0.26458332"
         d="m 98.410242,53.685834 c 0,-0.796317 0.646986,-1.443064 1.444308,-1.443064 0.79703,-2.38e-4 1.44306,0.646985 1.44306,1.443064 2.4e-4,0.798036 -0.64603,1.444281 -1.44306,1.444281 -0.797058,-2.38e-4 -1.444308,-0.646245 -1.444308,-1.444281 z" />
    </g>
  </g>
</svg>
