<?xml version="1.0" encoding="UTF-8" standalone="no"?>
<!-- Created with Inkscape (http://www.inkscape.org/) -->

<svg
   xmlns:dc="http://purl.org/dc/elements/1.1/"
   xmlns:cc="http://creativecommons.org/ns#"
   xmlns:rdf="http://www.w3.org/1999/02/22-rdf-syntax-ns#"
   xmlns:svg="http://www.w3.org/2000/svg"
   xmlns="http://www.w3.org/2000/svg"
   xmlns:sodipodi="http://sodipodi.sourceforge.net/DTD/sodipodi-0.dtd"
   xmlns:inkscape="http://www.inkscape.org/namespaces/inkscape"
   width="128"
   height="128"
   viewBox="0 0 33.866664 33.866664"
   version="1.1"
   id="svg8"
   inkscape:version="0.92.2 (5c3e80d, 2017-08-06)"
   sodipodi:docname="houseFreshLogo128x128.svg">
  <title
     id="title3790">houseFreshLogo</title>
  <defs
     id="defs2" />
  <sodipodi:namedview
     id="base"
     pagecolor="#ffffff"
     bordercolor="#666666"
     borderopacity="1.0"
     inkscape:pageopacity="0.0"
     inkscape:pageshadow="2"
     inkscape:zoom="3.959798"
     inkscape:cx="56.886132"
     inkscape:cy="65.863443"
     inkscape:document-units="mm"
     inkscape:current-layer="layer1"
     showgrid="false"
     fit-margin-top="0"
     fit-margin-left="0"
     fit-margin-right="0"
     fit-margin-bottom="0"
     inkscape:window-width="1366"
     inkscape:window-height="705"
     inkscape:window-x="-8"
     inkscape:window-y="-8"
     inkscape:window-maximized="1"
     units="px" />
  <metadata
     id="metadata5">
    <rdf:RDF>
      <cc:Work
         rdf:about="">
        <dc:format>image/svg+xml</dc:format>
        <dc:type
           rdf:resource="http://purl.org/dc/dcmitype/StillImage" />
        <dc:title>houseFreshLogo</dc:title>
      </cc:Work>
    </rdf:RDF>
  </metadata>
  <g
     inkscape:label="Layer 1"
     inkscape:groupmode="layer"
     id="layer1"
     transform="translate(-41.096202,-55.950087)">
    <path
       d="m 54.743416,72.904603 -6.998852,6.998957 c -0.634374,0.63394 -0.634374,1.661965 0,2.29601 0.634045,0.634257 1.662058,0.634374 2.295998,0 l 6.999286,-6.998957 z"
       style="fill:#f9f9f9;fill-rule:evenodd;stroke-width:0.26458329"
       id="path3699"
       inkscape:connector-curvature="0" />
    <path
       d="m 72.30747,61.791769 c -0.407746,-0.333704 -1.015206,-0.261934 -1.387973,0.110084 l -4.173612,4.174045 -0.726699,-0.726594 4.173716,-4.174045 c 0.372768,-0.372018 0.444114,-0.979807 0.110414,-1.387551 -0.383421,-0.468862 -1.076665,-0.494686 -1.494198,-0.07705 l -4.214288,4.214185 -0.726594,-0.726593 4.173611,-4.174045 c 0.372873,-0.372334 0.44422,-0.979807 0.110519,-1.387435 -0.383421,-0.468862 -1.076652,-0.494697 -1.4943,-0.07715 l -4.214174,4.21429 -1.371303,1.371186 c -0.842706,0.842812 -0.842706,2.20948 0,3.052619 l 0.189076,0.188748 -2.880657,2.880551 2.296011,2.296432 2.880656,-2.880657 0.188748,0.188643 c 0.843139,0.842811 2.209807,0.842811 3.052513,1.06e-4 l 5.585584,-5.585583 c 0.417529,-0.417531 0.392137,-1.110762 -0.07705,-1.494182 z"
       style="fill:#f9f9f9;fill-rule:evenodd;stroke-width:0.26458329"
       id="path3701"
       inkscape:connector-curvature="0" />
    <path
       d="m 44.551941,59.075536 c -1.854798,1.855231 -1.466743,5.251457 0.86778,7.585336 1.825627,1.82606 4.298551,2.455048 6.178095,1.756971 l 13.143585,13.143584 c 0.633941,0.63352 1.661953,0.63352 2.296327,0 0.634046,-0.634045 0.634046,-1.662491 0,-2.296431 L 53.894248,66.121844 c 0.698078,-1.879978 0.06941,-4.35289 -1.756549,-6.178844 -2.334418,-2.333997 -5.730211,-2.722684 -7.585758,-0.867464 z"
       style="fill:#f9f9f9;fill-rule:evenodd;stroke-width:0.26458329"
       id="path3703"
       inkscape:connector-curvature="0" />
    <path
       d="m 69.290472,72.516665 h -3.5e-4 c 1.566722,1.566724 4.106463,1.566724 5.672747,0 v 0 c -1.566284,-1.566397 -4.106025,-1.56628 -5.672419,0 z"
       style="fill:#f9f9f9;fill-rule:evenodd;stroke-width:0.26458329"
       id="path3705"
       inkscape:connector-curvature="0" />
    <path
       d="m 68.11556,71.611659 v 0 c 2.21551,0 4.011119,-1.796045 4.011119,-4.01112 v -1.05e-4 c -2.215177,0 -4.011119,1.796033 -4.011119,4.011225 z"
       style="fill:#f9f9f9;fill-rule:evenodd;stroke-width:0.26458329"
       id="path3707"
       inkscape:connector-curvature="0" />
    <path
       d="m 68.11556,73.422115 v 0 c 2.21551,0 4.011119,1.796033 4.011119,4.011225 v -1.05e-4 c -2.215177,0 -4.011119,-1.795612 -4.011119,-4.01112 z"
       style="fill:#f9f9f9;fill-rule:evenodd;stroke-width:0.26458329"
       id="path3709"
       inkscape:connector-curvature="0" />
    <path
       d="m 58.029546,82.829308 v 0 c -1.566396,1.566724 -1.566396,4.106466 0,5.672863 v 0 c 1.566291,-1.566397 1.566291,-4.106033 0,-5.672863 z"
       style="fill:#f9f9f9;fill-rule:evenodd;stroke-width:0.26458329"
       id="path3711"
       inkscape:connector-curvature="0" />
    <path
       d="m 58.934891,81.654724 v 0 c 0,2.21552 1.796034,4.011226 4.011226,4.011226 v 0 c 0,-2.215508 -1.795718,-4.011226 -4.011226,-4.011226 z"
       style="fill:#f9f9f9;fill-rule:evenodd;stroke-width:0.26458329"
       id="path3713"
       inkscape:connector-curvature="0" />
    <path
       d="m 57.124424,81.654724 v 0 c 0,2.21552 -1.796034,4.011226 -4.011109,4.011226 v 0 c 0,-2.215508 1.795601,-4.011226 4.011109,-4.011226 z"
       style="fill:#f9f9f9;fill-rule:evenodd;stroke-width:0.26458329"
       id="path3715"
       inkscape:connector-curvature="0" />
    <path
       d="m 46.768959,72.516665 v 0 c -1.566396,-1.566397 -4.106361,-1.56628 -5.672757,0 h 1.17e-4 c 1.566279,1.566724 4.106244,1.566724 5.67264,0 z"
       style="fill:#f9f9f9;fill-rule:evenodd;stroke-width:0.26458329"
       id="path3717"
       inkscape:connector-curvature="0" />
    <path
       d="m 47.943543,73.422115 v 0 c -2.215192,0 -4.010804,1.796033 -4.010804,4.011225 v -1.05e-4 c 2.215086,0 4.010804,-1.795612 4.010804,-4.01112 z"
       style="fill:#f9f9f9;fill-rule:evenodd;stroke-width:0.26458329"
       id="path3719"
       inkscape:connector-curvature="0" />
    <path
       d="m 47.943543,71.611659 v 0 c -2.215192,0 -4.010804,-1.796045 -4.010804,-4.01112 v -1.05e-4 c 2.215086,0 4.010804,1.796033 4.010804,4.011225 z"
       style="fill:#f9f9f9;fill-rule:evenodd;stroke-width:0.26458329"
       id="path3721"
       inkscape:connector-curvature="0" />
    <path
       d="m 49.6211,72.516665 c 0,0.353077 -0.285932,0.638997 -0.638576,0.638997 -0.352644,-1.05e-4 -0.638881,-0.28592 -0.638881,-0.638997 0,-0.352317 0.286237,-0.638459 0.638881,-0.638459 0.352761,-1.06e-4 0.638576,0.286247 0.638576,0.638459 z"
       style="fill:#e6e6e6;fill-rule:evenodd;stroke-width:0.26458329"
       id="path3723"
       inkscape:connector-curvature="0" />
    <path
       d="m 58.029546,79.993533 c 0.353078,0 0.638892,0.285814 0.638892,0.638564 0,0.352644 -0.28592,0.638459 -0.638892,0.638459 -0.352749,0 -0.638564,-0.285815 -0.638564,-0.638459 0,-0.35275 0.285815,-0.638564 0.638564,-0.638564 z"
       style="fill:#e6e6e6;fill-rule:evenodd;stroke-width:0.26458329"
       id="path3725"
       inkscape:connector-curvature="0" />
    <path
       d="m 66.453819,72.516665 c 0,-0.352317 0.286248,-0.638459 0.639009,-0.638459 0.352632,-1.06e-4 0.638457,0.286247 0.638457,0.638459 1.07e-4,0.353077 -0.285825,0.638997 -0.638457,0.638997 -0.352645,-1.05e-4 -0.639009,-0.28592 -0.639009,-0.638997 z"
       style="fill:#e6e6e6;fill-rule:evenodd;stroke-width:0.26458329"
       id="path3727"
       inkscape:connector-curvature="0" />
  </g>
</svg>
