<?xml version="1.0" encoding="UTF-8" standalone="no"?>
<svg
   xmlns:dc="http://purl.org/dc/elements/1.1/"
   xmlns:cc="http://creativecommons.org/ns#"
   xmlns:rdf="http://www.w3.org/1999/02/22-rdf-syntax-ns#"
   xmlns:svg="http://www.w3.org/2000/svg"
   xmlns="http://www.w3.org/2000/svg"
   xmlns:sodipodi="http://sodipodi.sourceforge.net/DTD/sodipodi-0.dtd"
   xmlns:inkscape="http://www.inkscape.org/namespaces/inkscape"
   version="1.1"
   width="150"
   height="150"
   id="svg68"
   viewBox="0 0 150 150"
   sodipodi:docname="yummy.svg"
   inkscape:version="0.92.2 (5c3e80d, 2017-08-06)"
   inkscape:export-filename="C:\Documents\!!!\business\сайт хаусфреш\сайт\HouseFresh\static\img\logos\yummy.png"
   inkscape:export-xdpi="89.8106"
   inkscape:export-ydpi="89.8106">
  <metadata
     id="metadata74">
    <rdf:RDF>
      <cc:Work
         rdf:about="">
        <dc:format>image/svg+xml</dc:format>
        <dc:type
           rdf:resource="http://purl.org/dc/dcmitype/StillImage" />
        <dc:title></dc:title>
      </cc:Work>
    </rdf:RDF>
  </metadata>
  <defs
     id="defs72" />
  <sodipodi:namedview
     pagecolor="#ffffff"
     bordercolor="#666666"
     borderopacity="1"
     objecttolerance="10"
     gridtolerance="10"
     guidetolerance="10"
     inkscape:pageopacity="0"
     inkscape:pageshadow="2"
     inkscape:window-width="1366"
     inkscape:window-height="705"
     id="namedview70"
     showgrid="false"
     inkscape:zoom="4.4851477"
     inkscape:cx="64.006434"
     inkscape:cy="45.733103"
     inkscape:window-x="-8"
     inkscape:window-y="-8"
     inkscape:window-maximized="1"
     inkscape:current-layer="svg68"
     fit-margin-top="0"
     fit-margin-left="0"
     fit-margin-right="0"
     fit-margin-bottom="0" />
  <path
     d="M 150,75.00024 C 150,33.57873 116.42174,0 75.000246,0 33.578745,0 0,33.57873 0,75.00024 0,116.42172 33.578745,150 75.000246,150 116.422,150 150,116.42172 150,75.00024 Z"
     style="fill:#e94d1d;fill-rule:evenodd;stroke-width:1"
     id="path2"
     inkscape:connector-curvature="0" />
  <path
     d="m 147.33561,75.11463 h 0.216 c 0,-40.06911 -32.48274,-72.55116 -72.551364,-72.55116 v 0 C 34.931139,2.56347 2.44911,35.04552 2.44911,75.11463 v 0 c 0,40.06908 32.482029,72.55086 72.551136,72.55086 40.068624,0 72.551124,-32.48178 72.551124,-72.55086 h -0.2157 -0.216 c 0,19.91562 -8.07252,37.94451 -21.12381,50.99604 -13.05153,13.05153 -31.079406,21.12279 -50.995554,21.12279 -19.915893,0 -37.944288,-8.07126 -50.99604,-21.12279 C 10.952964,113.05839 2.881173,95.03025 2.881173,75.11463 c 0,-19.91589 8.071791,-37.9443 21.123093,-50.99607 C 37.056018,11.06727 55.084413,2.9955 75.000306,2.9955 c 19.916148,0 37.944024,8.07177 50.995554,21.12306 13.05153,13.05177 21.12381,31.08018 21.12381,50.99607 z"
     style="fill:#ffffff;fill-rule:evenodd;stroke-width:1"
     id="path4"
     inkscape:connector-curvature="0" />
  <path
     d="m 110.13464,107.89344 h 20.27887 v -0.432 h -20.27887 z"
     style="fill:#ffffff;fill-rule:evenodd;stroke-width:1"
     id="path6"
     inkscape:connector-curvature="0" />
  <path
     d="m 17.777589,107.89344 h 21.881772 v -0.432 H 17.777589 Z"
     style="fill:#ffffff;fill-rule:evenodd;stroke-width:1"
     id="path8"
     inkscape:connector-curvature="0" />
  <path
     d="m 44.643066,111.55659 c -2.124591,0 -3.1995,-1.66122 -3.1995,-3.66315 0,-2.26026 1.279167,-3.71772 3.268566,-3.71772 1.606623,0 2.668047,0.87162 2.845113,2.34207 h -0.55839 c -0.14865,-1.13001 -1.007553,-1.87893 -2.273271,-1.87893 -1.661946,0 -2.723403,1.26642 -2.723403,3.22767 0,1.94751 1.047975,3.22716 2.627403,3.22716 1.334781,0 2.261271,-0.83049 2.438337,-2.19195 h 0.545163 c -0.21771,1.67448 -1.307814,2.65485 -2.970018,2.65485 z"
     style="fill:#ffffff;fill-rule:evenodd;stroke-width:1"
     id="path10"
     inkscape:connector-curvature="0" />
  <path
     d="m 48.998544,107.86653 c 0,1.96053 1.049457,3.21324 2.696469,3.21324 1.60833,0 2.642595,-1.25271 2.642595,-3.17262 0,-1.97493 -1.049685,-3.25458 -2.656047,-3.25458 -1.606365,0 -2.683017,1.29336 -2.683017,3.21396 z m 5.911164,0.0405 c 0,2.23338 -1.267395,3.64944 -3.228147,3.64944 -1.974237,0 -3.241632,-1.44351 -3.241632,-3.69006 0,-2.22039 1.294329,-3.69081 3.255084,-3.69081 1.9473,0 3.214695,1.45746 3.214695,3.73143 z"
     style="fill:#ffffff;fill-rule:evenodd;stroke-width:1"
     id="path12"
     inkscape:connector-curvature="0" />
  <path
     d="m 58.789344,102.13317 c -0.28704,-0.027 -0.3681,-0.0414 -0.545166,-0.0414 -1.184619,0 -1.117038,0.81726 -1.117038,1.68891 v 0.59979 h 1.457943 v 0.4761 H 57.12714 v 6.49626 h -0.545163 v -6.49626 h -1.211589 v -0.4761 h 1.211589 v -0.87189 c 0,-1.06266 0.19077,-1.90662 1.635267,-1.90662 0.204,-2.4e-4 0.29856,0.012 0.571875,0.0414 z"
     style="fill:#ffffff;fill-rule:evenodd;stroke-width:1"
     id="path14"
     inkscape:connector-curvature="0" />
  <path
     d="m 62.069685,102.13317 c -0.28506,-0.027 -0.367839,-0.0414 -0.545163,-0.0414 -1.184394,0 -1.115331,0.81726 -1.115331,1.68891 v 0.59979 h 1.456236 v 0.4761 h -1.456236 v 6.49626 h -0.545163 v -6.49626 h -1.213299 v -0.4761 h 1.213299 v -0.87189 c 0,-1.06266 0.19077,-1.90662 1.633557,-1.90662 0.20427,-2.4e-4 0.300486,0.012 0.5721,0.0414 z"
     style="fill:#ffffff;fill-rule:evenodd;stroke-width:1"
     id="path16"
     inkscape:connector-curvature="0" />
  <path
     d="m 65.513868,104.67924 c -1.716075,0 -2.452047,1.32204 -2.600469,2.81943 l 5.092935,-2.4e-4 c 0,-1.41609 -0.803328,-2.81919 -2.492466,-2.81919 z m 0,6.90429 c -1.920336,0 -3.172569,-1.42905 -3.172569,-3.64869 0,-2.22033 1.292622,-3.74541 3.172569,-3.74541 2.070462,0 3.050856,1.68816 3.050856,3.59505 v 0.1911 h -5.651325 c 0,1.60686 0.776361,3.14562 2.613951,3.14562 1.28088,0 2.151528,-0.77565 2.424855,-2.13732 h 0.543453 c -0.24468,1.52406 -1.319589,2.59971 -2.98179,2.59971 z"
     style="fill:#ffffff;fill-rule:evenodd;stroke-width:1"
     id="path18"
     inkscape:connector-curvature="0" />
  <path
     d="m 72.579294,104.67924 c -1.714365,0 -2.450337,1.32204 -2.600466,2.81943 l 5.092932,-2.4e-4 c 0,-1.41609 -0.803325,-2.81919 -2.492466,-2.81919 z m 0,6.90429 c -1.918623,0 -3.172341,-1.42905 -3.172341,-3.64869 0,-2.22033 1.294137,-3.74541 3.172341,-3.74541 2.070465,0 3.051117,1.68816 3.051117,3.59505 v 0.1911 h -5.651583 c 0,1.60686 0.776361,3.14562 2.615661,3.14562 1.27917,0 2.151528,-0.77565 2.423142,-2.13732 h 0.545166 c -0.24468,1.52406 -1.321299,2.59971 -2.983503,2.59971 z"
     style="fill:#ffffff;fill-rule:evenodd;stroke-width:1"
     id="path20"
     inkscape:connector-curvature="0" />
  <path
     d="m 83.144487,104.85657 h -1.498365 v 4.72581 c 0,0.7215 -0.027,1.30731 0.926523,1.30731 0.13665,0 0.31371,-0.015 0.571842,-0.0543 v 0.50352 c -0.300261,0.0408 -0.421713,0.0546 -0.652908,0.0546 -1.471428,0 -1.39062,-0.91254 -1.39062,-2.02956 l 2.58e-4,-4.50735 h -1.292655 v -0.4761 h 1.292655 v -2.19366 h 0.544905 v 2.19366 h 1.498365 z"
     style="fill:#ffffff;fill-rule:evenodd;stroke-width:1"
     id="path22"
     inkscape:connector-curvature="0" />
  <path
     d="m 84.314202,107.86653 c 0,1.96053 1.049427,3.21324 2.696469,3.21324 1.608072,0 2.642079,-1.25271 2.642079,-3.17262 2.58e-4,-1.97493 -1.048683,-3.25458 -2.655789,-3.25458 -1.60614,0 -2.682759,1.29336 -2.682759,3.21396 z m 5.911389,0.0405 c 0,2.23338 -1.267395,3.64944 -3.22863,3.64944 -1.974237,0 -3.241407,-1.44351 -3.241407,-3.69006 0,-2.22039 1.294104,-3.69081 3.255117,-3.69081 1.947525,0 3.21492,1.45746 3.21492,3.73143 z"
     style="fill:#ffffff;fill-rule:evenodd;stroke-width:1"
     id="path24"
     inkscape:connector-curvature="0" />
  <path
     d="m 95.436333,107.66178 c 0,1.82556 0.953199,2.96952 2.465013,2.96952 1.729818,0 2.547084,-1.40307 2.547084,-3.02388 0,-1.77024 -0.99459,-2.92818 -2.506437,-2.92818 -1.523076,0 -2.50566,1.17165 -2.50566,2.98254 z m 5.543547,3.13218 c 0,0.95367 -0.108,1.48512 -0.39503,1.98864 -0.44917,0.78987 -1.389142,1.22532 -2.629117,1.22532 -1.674234,0 -2.64111,-0.76218 -2.750853,-2.13834 h 0.558906 c 0.08202,1.14471 0.979875,1.67616 2.220594,1.67616 0.924522,-2.1e-4 1.633782,-0.2859 2.02859,-0.81747 0.29979,-0.40854 0.43546,-0.99438 0.43546,-1.9206 v -1.47048 c -0.42249,1.13004 -1.320075,1.78395 -2.61444,1.78395 -1.797138,0 -2.954823,-1.33476 -2.954823,-3.39105 0,-2.13756 1.212039,-3.54066 3.049857,-3.54066 1.266684,0 2.110656,0.6948 2.546116,1.78344 v -1.5924 h 0.50474 z"
     style="fill:#ffffff;fill-rule:evenodd;stroke-width:1"
     id="path26"
     inkscape:connector-curvature="0" />
  <path
     d="m 102.7207,107.86653 c 0,1.96053 1.04797,3.21324 2.69746,3.21324 1.60611,0 2.64038,-1.25271 2.64038,-3.17262 0,-1.97493 -1.04824,-3.25458 -2.65434,-3.25458 -1.60785,0 -2.6835,1.29336 -2.6835,3.21396 z m 5.90971,0.0405 c 0,2.23338 -1.26572,3.64944 -3.22621,3.64944 -1.97595,0 -3.24164,-1.44351 -3.24164,-3.69006 0,-2.22039 1.29434,-3.69081 3.2556,-3.69081 1.94653,0 3.21225,1.45746 3.21225,3.73143 z"
     style="fill:#ffffff;fill-rule:evenodd;stroke-width:1"
     id="path28"
     inkscape:connector-curvature="0" />
  <path
     d="m 95.400075,73.16511 c 0.03894,-0.2262 0.25398,-0.45699 0.642906,-0.69282 0.389646,-0.2352 0.856197,-0.44085 1.403073,-0.61497 0.545196,-0.1743 1.118748,-0.30225 1.72272,-0.3843 0.603195,-0.0822 1.139816,-0.0822 1.606366,0 0.46826,0.0819 0.8371,0.2562 1.11091,0.52314 0.27135,0.2658 0.33013,0.65634 0.1746,1.16895 -0.11583,0.49206 -0.25398,1.2564 -0.40778,2.29116 -0.15648,1.03644 -0.30416,2.19462 -0.43984,3.47676 -0.13569,1.28109 -0.26181,2.61978 -0.37939,4.01409 -0.11559,1.39524 -0.19419,2.70207 -0.23313,3.92199 -0.0407,1.22061 -0.0502,2.28183 -0.0304,3.18456 0.0201,0.90201 0.0892,1.4964 0.20499,1.78416 0.15627,0.32748 -0.0874,0.58416 -0.73032,0.76905 -0.642652,0.1839 -1.36414,0.2772 -2.160598,0.2772 -0.799392,0 -1.52946,-0.0984 -2.191947,-0.2928 -0.662745,-0.1944 -0.93507,-0.49767 -0.817521,-0.90714 0.07788,-0.36981 0.15477,-0.96936 0.2334,-1.79961 0.07764,-0.83121 0.14598,-1.77903 0.20475,-2.84514 0.05877,-1.0668 0.10803,-2.20491 0.14598,-3.41529 0.03894,-1.20984 0.07791,-2.38932 0.11757,-3.53793 -0.780294,1.04622 -1.471428,2.01534 -2.07369,2.90706 -0.603939,0.89247 -0.985005,1.54365 -1.139556,1.95366 0,0.2463 -0.29193,0.45675 -0.876036,0.63066 -0.585843,0.174 -1.22775,0.2769 -1.927689,0.30759 -0.701424,0.0309 -1.364169,-0.027 -1.987206,-0.1698 -0.62355,-0.1431 -1.013457,-0.39918 -1.168005,-0.76851 -0.1959,-0.53292 -0.516489,-1.19469 -0.964458,-1.98453 -0.448164,-0.78933 -0.944844,-1.62498 -1.49001,-2.50689 -0.11586,1.21059 -0.22485,2.43 -0.320613,3.66069 -0.09723,1.2309 -0.156,2.37465 -0.17634,3.43047 -0.0201,1.05654 -0.0201,1.96809 0,2.73783 0.0204,0.76902 0.08916,1.28655 0.20475,1.55346 0.15627,0.32748 -0.08721,0.58416 -0.729843,0.76905 -0.642648,0.1839 -1.364136,0.2772 -2.161335,0.2772 -0.798651,0 -1.528494,-0.0984 -2.191464,-0.2928 -0.662715,-0.1944 -0.952941,-0.49767 -0.875781,-0.90714 0.07713,-0.43104 0.16431,-1.13274 0.26325,-2.10723 0.09579,-0.97374 0.17466,-2.08737 0.23343,-3.33837 0.05877,-1.25025 0.10725,-2.55807 0.14598,-3.92223 0.03867,-1.36344 0.06708,-2.65509 0.08715,-3.87624 0.0201,-1.21938 0.0201,-2.2911 0,-3.21444 -0.0201,-0.92256 -0.06882,-1.55787 -0.14595,-1.90686 -0.07887,-0.30834 0.20475,-0.63087 0.847359,-0.96912 0.642651,-0.33843 1.372752,-0.58947 2.191464,-0.75384 0.817296,-0.1644 1.585818,-0.21 2.307306,-0.1386 0.720036,0.0723 1.15794,0.36489 1.313943,0.87726 0.0387,0.0408 0.23316,0.39945 0.583875,1.0764 0.350709,0.67668 0.760197,1.48683 1.226265,2.43048 0.468291,0.94293 0.965199,1.91229 1.490523,2.90709 0.527067,0.99483 1.002909,1.82997 1.431525,2.50665 0.5841,-0.61497 1.149105,-1.29165 1.694301,-2.03028 0.545163,-0.73791 1.060941,-1.47657 1.549041,-2.21451 0.486648,-0.73866 0.942651,-1.44105 1.372977,-2.1072 0.427614,-0.66618 0.79668,-1.24584 1.108458,-1.7379 z"
     style="fill:#ffffff;fill-rule:evenodd;stroke-width:1"
     id="path30"
     inkscape:connector-curvature="0" />
  <path
     d="m 95.400075,50.99778 c 0.03894,-0.2262 0.25398,-0.45678 0.642906,-0.69264 0.389646,-0.2352 0.856197,-0.44109 1.403073,-0.61497 0.545196,-0.174 1.118748,-0.30243 1.72272,-0.38451 0.603195,-0.0819 1.139816,-0.0819 1.606366,0 0.46826,0.0822 0.8371,0.2562 1.11091,0.52314 0.27135,0.2661 0.33013,0.65634 0.1746,1.16898 -0.11583,0.492 -0.25398,1.25637 -0.40778,2.29113 -0.15648,1.0362 -0.30416,2.19489 -0.43984,3.477 -0.13569,1.28112 -0.26181,2.61981 -0.37939,4.01409 -0.11559,1.395 -0.19419,2.70183 -0.23313,3.92199 -0.0407,1.22037 -0.0502,2.28159 -0.0304,3.18456 0.0201,0.90201 0.0892,1.49664 0.20499,1.78395 0.15627,0.32766 -0.0874,0.5841 -0.73032,0.76878 -0.642652,0.1845 -1.36414,0.2772 -2.160598,0.2772 -0.799392,0 -1.52946,-0.0981 -2.191947,-0.2925 -0.662745,-0.1941 -0.93507,-0.49743 -0.817521,-0.90738 0.07788,-0.36933 0.15477,-0.96936 0.2334,-1.79985 0.07764,-0.83049 0.14598,-1.77852 0.20475,-2.84511 0.05877,-1.06659 0.10803,-2.20449 0.14598,-3.41505 0.03894,-1.20963 0.07791,-2.38911 0.11757,-3.53799 -0.780294,1.04625 -1.471428,2.01561 -2.07369,2.90709 -0.603939,0.89247 -0.985005,1.54368 -1.139556,1.95366 0,0.2463 -0.29193,0.45675 -0.876036,0.63087 -0.585843,0.174 -1.22775,0.2766 -1.927689,0.30762 -0.701424,0.0306 -1.364169,-0.027 -1.987206,-0.1698 -0.62355,-0.1434 -1.013457,-0.39942 -1.168005,-0.76875 -0.1959,-0.53292 -0.516489,-1.19469 -0.964458,-1.98453 -0.448164,-0.78909 -0.944844,-1.62498 -1.49001,-2.50665 -0.11586,1.21035 -0.22485,2.42976 -0.320613,3.66066 -0.09723,1.23069 -0.156,2.37417 -0.17634,3.42999 -0.0201,1.05678 -0.0201,1.9686 0,2.73813 0.0204,0.76878 0.08916,1.28649 0.20475,1.55346 0.15627,0.32766 -0.08721,0.5841 -0.729843,0.76878 -0.642648,0.1845 -1.364136,0.2772 -2.161335,0.2772 -0.798651,0 -1.528494,-0.0981 -2.191464,-0.2925 -0.662715,-0.1941 -0.952941,-0.49743 -0.875781,-0.90738 0.07713,-0.43131 0.16431,-1.13271 0.26325,-2.1072 0.09579,-0.9738 0.17466,-2.08716 0.23343,-3.3384 0.05877,-1.25025 0.10725,-2.55783 0.14598,-3.92202 0.03867,-1.36338 0.06708,-2.6553 0.08715,-3.87642 0.0201,-1.21941 0.0201,-2.29116 0,-3.21444 -0.0201,-0.92259 -0.06882,-1.55763 -0.14595,-1.90665 -0.07887,-0.30834 0.20475,-0.6309 0.847359,-0.96936 0.642651,-0.33846 1.372752,-0.58926 2.191464,-0.75357 0.817296,-0.1647 1.585818,-0.2103 2.307306,-0.1389 0.720036,0.0726 1.15794,0.36489 1.313943,0.87753 0.0387,0.0405 0.23316,0.39918 0.583875,1.07613 0.350709,0.67668 0.760197,1.48707 1.226265,2.43072 0.468291,0.94269 0.965199,1.91202 1.490523,2.90685 0.527067,0.99483 1.002909,1.82997 1.431525,2.50692 0.5841,-0.61497 1.149105,-1.29192 1.694301,-2.03055 0.545163,-0.73794 1.060941,-1.47633 1.549041,-2.21424 0.486648,-0.73866 0.942651,-1.44108 1.372977,-2.10747 0.427614,-0.66618 0.79668,-1.24563 1.108458,-1.73787 z"
     style="fill:#ffffff;fill-rule:evenodd;stroke-width:1"
     id="path32"
     inkscape:connector-curvature="0" />
  <path
     d="m 104.06161,60.08664 c -0.037,0.59538 -0.0742,1.19589 -0.11145,1.79544 0.0304,-0.30099 0.0683,-0.59784 0.11829,-0.90177 0.0434,-0.39063 0.0129,-0.59781 -0.007,-0.89367 z"
     style="fill:#ffffff;fill-rule:evenodd;stroke-width:1"
     id="path34"
     inkscape:connector-curvature="0" />
  <path
     d="m 103.84658,63.54231 c -0.007,0.1086 -0.0141,0.2175 -0.0198,0.31839 6.5e-4,0.0966 6.5e-4,0.1899 0.002,0.2736 0.006,-0.1968 0.012,-0.39555 0.018,-0.59199 z"
     style="fill:#ffffff;fill-rule:evenodd;stroke-width:1"
     id="path36"
     inkscape:connector-curvature="0" />
  <path
     d="m 103.71773,66.67056 c 0.0416,-0.55176 0.0656,-1.08102 0.082,-1.59216 -0.0397,0.45015 -0.0691,0.97452 -0.082,1.59216 z"
     style="fill:#ffffff;fill-rule:evenodd;stroke-width:1"
     id="path38"
     inkscape:connector-curvature="0" />
  <path
     d="m 103.90364,64.18278 c -0.0382,0.1902 -0.0727,0.2832 -0.0762,-0.0354 l 9.7e-4,-0.012 c -0.01,0.312 -0.0192,0.62181 -0.0288,0.9441 0.0304,-0.33675 0.0656,-0.6375 0.10386,-0.89562 z"
     style="fill:#ffffff;fill-rule:evenodd;stroke-width:1"
     id="path40"
     inkscape:connector-curvature="0" />
  <path
     d="m 103.90364,64.18278 c 0.0328,-0.1875 0.0828,-0.47487 0.10017,-0.57753 -0.0338,0.1674 -0.0674,0.36126 -0.10017,0.57753 z"
     style="fill:#ffffff;fill-rule:evenodd;stroke-width:1"
     id="path42"
     inkscape:connector-curvature="0" />
  <path
     d="m 104.51787,65.00838 c 0.003,0.31665 -0.1788,0.2316 -0.17289,0.85767 -0.0301,1.46604 -0.0171,2.72244 -0.0941,4.09245 0.007,0.62598 -0.25593,1.59804 -0.24882,2.22282 -0.0311,1.47069 0.008,5.22882 0.12171,3.02193 0.14256,-3.32022 0.23685,-5.48694 0.36539,-8.46654 0.0588,-2.42391 0.11586,-4.75716 0.17637,-7.23759 0.0304,-0.69459 0.0813,-1.34142 0.1305,-1.99335 -0.0745,0.85059 -0.15132,1.72077 -0.23682,2.68593 -0.12345,1.2711 0.0294,2.82162 -0.0414,4.81668 z"
     style="fill:#ffffff;fill-rule:evenodd;stroke-width:1"
     id="path44"
     inkscape:connector-curvature="0" />
  <path
     d="m 105.73704,47.48622 -0.80284,0.0507 v 0.2043 c -0.0526,0.33801 -0.0974,0.74649 -0.13126,1.119 -0.0335,0.35538 -0.0588,0.71445 -0.0769,1.07616 -0.038,0.72321 -0.0536,1.45647 -0.0683,2.18973 0.0424,-0.2115 0.0857,-0.42663 0.12954,-0.64413 0.0365,-0.83781 -0.0102,-0.93747 -0.0923,-0.1965 0.15381,-1.24686 0.25323,-2.4501 0.32475,-3.65775 0.43571,-0.0022 0.87091,-0.003 1.31004,-0.006 -0.10974,-0.0507 -0.0598,-0.1092 -0.59268,-0.135 z"
     style="fill:#ffffff;fill-rule:evenodd;stroke-width:1"
     id="path46"
     inkscape:connector-curvature="0" />
  <path
     d="m 106.95521,47.20239 c 0.0407,0.1431 -0.0129,0.32694 -0.15307,0.39306 -0.14255,0.0399 -0.3179,0.015 -0.47242,0.027 l 0.0345,0.015 0.24345,-0.006 c 0.0806,-0.003 0.16677,0.006 0.23169,-0.0444 0.13128,-0.0927 0.1641,-0.2778 0.11145,-0.41658 z"
     style="fill:#ffffff;fill-rule:evenodd;stroke-width:1"
     id="path48"
     inkscape:connector-curvature="0" />
  <path
     d="m 41.377662,52.32813 c 0.618648,4.95036 0.773196,9.26202 0.463614,12.93297 -0.309066,3.67218 -0.927972,6.76617 -1.856172,9.28191 -0.928197,2.51667 -2.103786,4.48602 -3.526956,5.9094 -1.423428,1.42323 -2.960727,2.36196 -4.609962,2.81529 -0.04164,2.02197 -0.04164,3.76551 0,5.22909 0.04065,1.46457 0.12369,2.46501 0.24735,3.00063 0.16458,0.66003 -0.11436,1.17582 -0.835392,1.54734 -0.722229,0.3708 -1.526526,0.55743 -2.413335,0.55743 -0.887556,0 -1.701399,-0.1971 -2.443983,-0.58854 -0.742554,-0.39135 -1.073685,-0.99945 -0.98991,-1.82556 0.08202,-0.65928 0.15453,-1.65975 0.21627,-3.00063 0.06198,-1.33989 0.13344,-2.91837 0.21648,-4.73388 -0.825585,-0.1644 -1.691847,-0.4641 -2.598498,-0.8976 -0.908361,-0.43278 -1.76385,-1.10283 -2.568369,-2.01072 -0.804297,-0.9069 -1.505976,-2.09328 -2.103786,-3.5583 -0.598554,-1.46334 -1.02078,-3.31023 -1.268397,-5.5377 -0.24783,-2.22792 -0.26793,-4.86735 -0.06198,-7.92066 0.20598,-3.05229 0.721521,-6.62115 1.547106,-10.70478 0.24735,-1.07274 0.782973,-1.75308 1.608558,-2.0421 0.824619,-0.2883 1.690881,-0.35019 2.599242,-0.186 0.906909,0.1653 1.732527,0.4641 2.47482,0.89736 0.742587,0.43299 1.113879,0.83514 1.113879,1.20663 -1.320558,4.16694 -2.145174,7.83816 -2.475081,11.01441 -0.330615,3.17673 -0.309549,5.83767 0.06171,7.98237 0.371295,2.14542 0.979911,3.77457 1.825335,4.88841 0.845199,1.11363 1.773654,1.71216 2.78463,1.79445 1.01049,0.0831 2.011203,-0.38106 3.001146,-1.39254 0.989907,-1.01001 1.804494,-2.54634 2.444208,-4.60971 0.639195,-2.06241 1.01049,-4.68147 1.114101,-7.85868 0.10236,-3.17604 -0.23808,-6.90897 -1.021296,-11.19978 -0.0414,-0.4536 0.27897,-0.94857 0.959328,-1.48563 0.680844,-0.53538 1.454043,-0.93753 2.320272,-1.20642 0.866265,-0.2676 1.680591,-0.2985 2.444466,-0.0927 0.762651,0.2067 1.206426,0.80424 1.33059,1.79397 z"
     style="fill:#ffffff;fill-rule:evenodd;stroke-width:1"
     id="path50"
     inkscape:connector-curvature="0" />
  <path
     d="m 132.28044,52.32813 c 0.61866,4.95036 0.77322,9.26202 0.46314,12.93297 -0.30834,3.67218 -0.92796,6.76617 -1.85595,9.28191 -0.92772,2.51667 -2.10378,4.48602 -3.52668,5.9094 -1.42392,1.42323 -2.961,2.36196 -4.61046,2.81529 -0.0414,2.02197 -0.0414,3.76551 0,5.22909 0.0406,1.46457 0.12369,2.46501 0.2481,3.00063 0.16407,0.66003 -0.11487,1.17582 -0.83539,1.54734 -0.72226,0.3708 -1.52678,0.55743 -2.41311,0.55743 -0.8883,0 -1.70214,-0.1971 -2.44446,-0.58854 -0.74282,-0.39135 -1.07391,-0.99945 -0.98991,-1.82556 0.082,-0.65928 0.15453,-1.65975 0.216,-3.00063 0.0622,-1.33989 0.13371,-2.91837 0.21675,-4.73388 -0.82585,-0.1644 -1.69159,-0.4641 -2.59876,-0.8976 -0.9081,-0.43278 -1.76359,-1.10283 -2.56886,-2.01072 -0.80329,-0.9069 -1.50571,-2.09328 -2.10281,-3.5583 -0.59881,-1.46334 -1.02127,-3.31023 -1.2684,-5.5377 -0.24783,-2.22792 -0.26865,-4.86735 -0.0622,-7.92066 0.20571,-3.05229 0.72152,-6.62115 1.54662,-10.70478 0.24783,-1.07274 0.78346,-1.75308 1.60856,-2.0421 0.82536,-0.2883 1.69088,-0.35019 2.59973,-0.186 0.90642,0.1653 1.73249,0.4641 2.47459,0.89736 0.74304,0.43299 1.11359,0.83514 1.11359,1.20663 -1.32004,4.16694 -2.14517,7.83816 -2.47431,11.01441 -0.3309,3.17673 -0.31032,5.83767 0.0612,7.98237 0.37152,2.14542 0.97988,3.77457 1.82556,4.88841 0.84517,1.11363 1.77388,1.71216 2.78489,1.79445 1.00975,0.0831 2.01046,-0.38106 3.00037,-1.39254 0.9902,-1.01001 1.805,-2.54634 2.44445,-4.60971 0.63924,-2.06241 1.01076,-4.68147 1.11435,-7.85868 0.102,-3.17604 -0.2382,-6.90897 -1.02102,-11.19978 -0.0417,-0.4536 0.2781,-0.94857 0.9588,-1.48563 0.68085,-0.53538 1.45431,-0.93753 2.3208,-1.20642 0.86574,-0.2676 1.68054,-0.2985 2.44419,-0.0927 0.7629,0.2067 1.20618,0.80424 1.33059,1.79397 z"
     style="fill:#ffffff;fill-rule:evenodd;stroke-width:1"
     id="path52"
     inkscape:connector-curvature="0" />
  <path
     d="m 63.715242,54.24651 c -0.04212,-0.45333 0.12369,-0.92772 0.494715,-1.42269 0.371292,-0.49569 0.844938,-0.93828 1.422942,-1.33059 0.577263,-0.39162 1.196394,-0.69066 1.856658,-0.89736 0.65955,-0.2061 1.257618,-0.2367 1.794462,-0.093 0.535872,0.1452 0.958842,0.48564 1.268394,1.02126 0.309582,0.53661 0.381099,1.34112 0.21675,2.41335 -0.1239,0.98991 -0.26892,2.52726 -0.433488,4.60998 -0.16533,2.08341 -0.319839,4.41474 -0.4641,6.99243 -0.14475,2.57865 -0.27822,5.27022 -0.402162,8.07471 -0.12369,2.80593 -0.20667,5.43603 -0.24735,7.88979 -0.0414,2.45499 -0.05217,4.58964 -0.03084,6.40491 0.0201,1.81527 0.09282,3.01119 0.21675,3.58818 0.16383,0.66003 -0.09306,1.17582 -0.77394,1.54734 -0.680361,0.3708 -1.444236,0.55743 -2.289402,0.55743 -0.845682,0 -1.619364,-0.1971 -2.320302,-0.58854 -0.70191,-0.39135 -0.990168,-0.99945 -0.866232,-1.82556 0.04065,-0.32916 0.07125,-0.73176 0.09282,-1.20615 0.0201,-0.47418 0.05094,-0.99951 0.09258,-1.57749 -1.320555,1.81503 -2.826276,3.1863 -4.517124,4.11423 -1.691847,0.92799 -3.362631,1.2684 -5.012094,1.02129 -1.650459,-0.2481 -3.186792,-1.17579 -4.609737,-2.78463 -1.423395,-1.60881 -2.516949,-4.03221 -3.280083,-7.27089 -0.763392,-3.23799 -1.102812,-7.37304 -1.02078,-12.40695 0.08229,-5.03193 0.80478,-11.11674 2.165982,-18.25368 0.20574,-1.07274 0.700713,-1.75308 1.48491,-2.0421 0.782973,-0.2883 1.608558,-0.35019 2.475306,-0.186 0.866262,0.1653 1.64946,0.4641 2.351142,0.89736 0.700941,0.43299 1.052136,0.83514 1.052136,1.20663 -1.568397,6.02337 -2.64063,11.17971 -3.21789,15.46932 -0.577971,4.29111 -0.804036,7.84938 -0.680358,10.67442 0.12369,2.82627 0.52584,4.98126 1.206684,6.46614 0.680358,1.48491 1.494201,2.46552 2.44395,2.93919 0.948552,0.47511 1.969332,0.50526 3.062856,0.0933 1.092813,-0.41217 2.103786,-1.11384 3.032244,-2.10402 0.92823,-0.98991 1.711428,-2.20641 2.351625,-3.65088 0.638748,-1.44375 0.999234,-2.97027 1.082748,-4.57911 0.04017,-2.39229 0.08181,-4.86711 0.12393,-7.42569 0.04017,-2.55711 0.06147,-4.93962 0.06147,-7.14699 0,-2.20638 -0.0108,-4.13505 -0.03087,-5.78577 -0.0213,-1.64922 -0.07275,-2.78436 -0.15429,-3.40326 z"
     style="fill:#ffffff;fill-rule:evenodd;stroke-width:1"
     id="path54"
     inkscape:connector-curvature="0" />
  <path
     d="m 83.642391,34.76703 c -0.398712,-1.19886 -0.751359,-2.19441 -1.19907,-3.201 -0.24198,-0.51357 -0.4041,-0.93822 -0.334293,-1.1748 0.03942,-0.2475 0.23952,-0.59076 0.682068,-0.94392 0.15012,-0.1167 0.347292,-0.2637 0.702909,-0.43275 0.379356,-0.195 0.943617,-0.37374 1.812075,-0.83319 0.14328,-0.0687 0.468777,-0.2988 0.468777,-0.2988 0,0 0.11853,-0.0747 0.24465,-0.1764 0.07788,-0.06 0.09648,-0.0753 0.21306,-0.1821 0.473163,-0.43839 0.822165,-1.00488 0.997521,-1.55418 0.18075,-0.55131 0.22314,-1.07961 0.20232,-1.53906 -0.0561,-0.91962 -0.309324,-1.5924 -0.502068,-2.01903 -0.350712,-0.78297 -0.878745,-1.42635 -1.380072,-1.8579 -0.505518,-0.45087 -1.016652,-0.7761 -1.519686,-1.04673 -1.009263,-0.5442 -1.994787,-0.85206 -3.146598,-1.3659 0.780519,0.99852 1.571589,1.74477 2.316108,2.49492 0.739875,0.76365 1.508397,1.47657 1.986465,2.55615 0.13227,0.2931 0.29487,0.76533 0.327936,1.32642 0.0234,0.56307 -0.11856,1.16016 -0.588261,1.5924 l -0.11193,0.0981 -0.13494,0.1083 c 0,0 -0.21651,0.1305 -0.307614,0.1854 -0.616455,0.33285 -1.24146,0.55008 -1.708977,0.78471 -0.502068,0.2403 -0.836877,0.48345 -1.074684,0.67572 -0.693327,0.55569 -1.278201,1.41411 -1.250007,2.40135 0.009,0.47955 0.18219,0.90786 0.364164,1.20912 0.18489,0.31029 0.381324,0.53781 0.556938,0.7428 0.719295,0.83442 1.468977,1.57821 2.383206,2.45058 z"
     style="fill:#ffffff;fill-rule:evenodd;stroke-width:1"
     id="path56"
     inkscape:connector-curvature="0" />
  <path
     d="m 82.00077,26.65704 c 0.15993,-0.52656 0.0084,-0.86427 -0.09306,-1.14078 -0.11829,-0.2814 -0.21798,-0.53733 -0.338712,-0.89343 -0.07398,-0.2067 -0.20277,-0.52191 -0.626712,-0.99975 -0.394068,-0.46995 -1.028169,-1.02321 -1.593171,-1.7631 -0.583617,-0.75504 -0.903456,-1.68279 -0.992619,-2.34132 -0.09969,-0.6696 -0.06075,-1.10532 -0.06075,-1.10532 0,0 0,-0.43737 0.1602,-1.09545 0.14988,-0.6483 0.549324,-1.54173 1.202007,-2.24415 0.637518,-0.69699 1.373202,-1.19292 1.915461,-1.60098 0.545649,-0.39774 0.935298,-0.73938 1.138815,-0.92034 0.732519,-0.66174 1.330845,-0.84423 2.358012,-1.17093 -0.05808,1.07001 -0.2508,1.80228 -1.070262,2.58234 -0.21894,0.2067 -0.69336,0.62475 -1.278687,1.05285 -0.576261,0.42885 -1.212555,0.8763 -1.642362,1.35219 -0.426648,0.46239 -0.659295,0.98646 -0.766329,1.4175 -0.10533,0.4257 -0.10827,0.71295 -0.10827,0.71295 0,0 -0.0225,0.2868 0.04383,0.7203 0.06714,0.44034 0.2508,0.98034 0.636036,1.48317 0.391131,0.52239 1.004394,1.06854 1.516491,1.66614 0.521907,0.56424 0.892716,1.30854 0.981105,1.65069 0.20499,0.65244 0.15258,1.25076 -0.09429,1.74399 -0.24369,0.49254 -0.742809,0.87018 -1.286748,0.89343 z"
     style="fill:#fbd0b6;fill-rule:evenodd;stroke-width:1"
     id="path58"
     inkscape:connector-curvature="0" />
  <path
     d="m 103.51396,73.31205 c -0.24198,4.1574 -0.46923,8.07057 -0.6921,11.89311 0.0198,0.2955 0.05,0.50382 0.007,0.89763 -0.05,0.2961 -0.0872,0.5961 -0.11754,0.89319 -0.0352,0.55812 -0.0698,1.11555 -0.10458,1.66833 -0.006,0.1944 -0.012,0.39063 -0.018,0.5895 v 0.015 c 0.004,0.31473 0.0372,0.2232 0.0762,0.0312 0.0318,-0.2154 0.0664,-0.41217 0.10017,-0.58068 -0.0192,0.1098 -0.0673,0.38967 -0.10017,0.58068 -0.0389,0.2616 -0.0745,0.55377 -0.10383,0.89589 -0.0171,0.50895 -0.0404,1.04184 -0.0828,1.59045 0.0129,-0.61251 0.0424,-1.13859 0.0828,-1.59045 0.01,-0.32328 0.018,-0.63237 0.0276,-0.94338 -6.5e-4,-0.0891 -6.5e-4,-0.1791 -0.002,-0.2724 -0.0811,1.27452 -0.1614,2.54025 -0.24198,3.80763 -0.0111,0.2919 -0.0207,0.57114 -0.0294,0.79842 -0.0267,0.91497 -0.0544,1.85055 -0.1761,2.38614 -0.0129,0.1944 -0.0258,0.39237 -0.0389,0.59028 l 0.0225,-0.1035 c -0.0114,0.0828 -0.0207,0.153 -0.0294,0.2106 l -0.012,0.1848 -2.516953,-0.021 c -0.624519,0.0345 -1.270104,0.0699 -1.912011,0.1062 0,0 -0.433743,-0.0633 -0.647067,-0.0933 -0.26181,0.0465 -0.636036,0.0777 -1.073943,0.0933 0.519228,0.0552 0.991908,0.1173 1.434201,0.1554 0.648036,0.0933 1.446204,-0.1875 2.21082,-0.012 -0.764616,-0.1764 -1.562784,0.1047 -2.21082,0.012 -0.442293,-0.0381 -0.914973,-0.1005 -1.434201,-0.1554 -0.911553,0.0327 -2.090787,0 -3.040566,-0.0915 1.179492,-0.0786 2.172111,-0.0017 3.040566,0.0915 0.437907,-0.015 0.812133,-0.0468 1.073943,-0.0933 0.21333,0.03 0.647067,0.0933 0.647067,0.0933 0.641907,-0.0366 1.287492,-0.0717 1.912011,-0.1062 -1.885074,-0.015 -3.788538,-0.0321 -5.735097,-0.0486 -5.927067,-0.0345 -11.630811,-0.0684 -17.373942,-0.102 -0.19104,-6.18276 -0.38355,-12.41184 -0.587808,-19.02123 -0.19419,-7.03284 -0.352647,-13.78995 -0.477069,-20.41872 -0.03699,-1.63623 -0.07347,-3.25437 -0.10998,-4.85901 -0.05439,-1.84908 -0.10827,-3.68274 -0.16212,-5.50659 l -1.077618,-0.003 -0.436908,-0.0016 c -0.11514,0 -0.60984,-2.4e-4 0.0084,-2.4e-4 h 0.06711 -0.0023 -0.0039 l -0.0081,-2.4e-4 -0.0162,-2.7e-4 -0.06489,-6.3e-4 -0.12687,-0.012 -0.05733,-0.1104 c 0.0126,-0.0858 0.05343,-0.1647 0.07812,-0.2469 l 0.27186,-0.78174 0.06807,-0.2028 c 0.0234,-0.0789 0.04089,-0.1593 0.05217,-0.2409 0.0222,-0.1629 0.0201,-0.32889 -0.0072,-0.49128 l -0.09798,-0.46239 -0.04065,-0.2052 0.12933,-0.135 0.05142,-0.009 0.0258,-0.006 c -0.5121,0.102 -0.14961,0.03 -0.07863,0.015 l 0.39897,-0.0783 c -0.28728,0.0576 0.482973,-0.0945 0.901038,-0.177 l 0.0933,-3.19584 0.036,-1.13568 0.0216,-0.2097 0.19008,-0.0714 0.694329,-0.0771 0.970812,-0.087 c 0.650229,-0.0525 1.304877,-0.0939 1.961979,-0.1287 1.314684,-0.066 2.639403,-0.1251 3.976377,-0.0984 1.335009,0.012 2.678823,0.027 4.034895,0.0399 1.354845,0.021 2.719983,0.0345 4.098087,0.1128 1.800591,0.0825 4.145379,0.1248 6.636105,0.1779 1.243425,0.0591 2.521113,0.1302 3.775793,0.2274 0.62649,0.0489 1.24759,0.105 1.84982,0.1725 l 0.22362,0.027 0.0243,0.0019 9.6e-4,-0.0016 h 0.005 c 0.0519,1.66368 0.0994,3.21228 0.14181,4.56318 0.38868,0.0765 0.76362,0.1506 1.1283,0.2223 l 0.13569,0.027 0.0674,0.012 -0.20229,-0.0402 -0.20475,-0.0408 0.0234,0.003 0.046,0.009 0.18126,0.0354 0.18318,0.0354 0.27135,0.0537 0.13467,0.027 0.0676,0.012 -0.17904,-0.0357 c -0.44132,-0.0876 -0.26256,-0.0519 -0.29976,-0.0594 h 9.7e-4 l 0.009,6.6e-4 0.0588,0.018 0.0129,0.018 c 9.6e-4,0.021 0.0165,-0.024 -0.002,0.0828 -0.0165,0.1035 -0.0311,0.2037 -0.0465,0.30201 -0.0174,0.1329 -0.0192,0.2631 -0.01,0.38817 0.0147,0.2409 0.10359,0.50232 0.17631,0.65688 0.0509,0.1086 0.10017,0.2115 0.14598,0.30831 0.18735,0.38427 0.34213,0.66372 0.47071,0.85965 0.25668,0.39162 0.40703,0.44868 0.49177,0.34287 0.16851,-0.2118 0.0742,-1.07613 0.0466,-1.22259 -0.0424,-0.32307 -0.14256,-0.66936 -0.14523,-0.93924 0.006,-0.1524 0.0622,-0.2535 0.11511,-0.41634 0.0578,-0.1818 0.11487,-0.36222 0.17268,-0.54222 0.0588,-0.228 0.12613,-0.44307 0.10188,-0.66372 -0.018,-0.1107 -0.0673,-0.2208 -0.14427,-0.30345 -0.0776,-0.087 -0.17535,-0.114 -0.27381,-0.1605 l -0.15798,-0.0609 -0.0424,-0.015 -0.0382,-0.012 -0.14769,-0.0339 0.0485,0.006 -0.26181,-0.0678 -0.0674,-0.018 -0.18759,-0.0408 -0.0414,-0.009 -0.003,-6.3e-4 -0.005,-0.002 -0.01,-0.003 -0.0189,-0.006 -0.0673,-0.027 c 0.004,-0.195 0.009,-0.39384 0.0138,-0.59784 -0.002,-0.3054 -0.003,-0.6189 -0.004,-0.94218 -0.009,-0.70167 -0.018,-1.44744 -0.0285,-2.2554 -0.003,-0.174 -0.0276,-0.34041 -0.0666,-0.492 -0.0414,-0.1521 -0.14082,-0.31056 -0.28431,-0.40239 -0.27039,-0.1608 -0.66423,-0.2022 -1.04529,-0.2586 -0.57897,-0.0837 -1.13001,-0.1515 -1.7445,-0.2217 -1.21378,-0.1371 -2.561755,-0.27 -4.080472,-0.41196 2.830432,0.2655 1.774623,0.30174 -0.644586,0.2235 -2.42169,0.006 -6.213873,-0.1374 -8.892213,-0.3534 -1.951719,-0.1569 -4.118184,-0.2301 -6.417165,-0.2526 -1.149105,-0.009 -2.332788,0.0567 -3.542892,0.126 -0.605166,0.0375 -1.217202,0.0849 -1.83585,0.1422 -0.310293,0.0318 -0.622068,0.0645 -0.934554,0.0966 l -0.47268,0.0579 -0.395292,0.0543 -0.437649,0.0669 c -0.391872,0.0921 -0.682101,0.2475 -0.911811,0.56382 -0.10848,0.1539 -0.17439,0.30489 -0.22335,0.4827 -0.05316,0.1767 -0.05904,0.3855 -0.06075,0.59022 -0.0099,0.50037 -0.0192,1.00218 -0.0285,1.50498 -0.0072,0.43008 -0.0144,0.86085 -0.0219,1.2924 l -0.0054,0.32352 0.0016,0.0552 0.0039,0.0774 0.27579,-0.0519 0.06831,-0.012 0.03402,-0.006 0.0171,-0.003 -0.18687,0.0372 -0.375195,0.0759 -0.13593,0.027 -0.0681,0.015 -0.03378,0.006 -0.0087,0.0016 0.03627,-0.006 0.07788,-0.015 0.156,-0.0309 0.0207,-0.003 -0.20718,0.0459 -0.20697,0.0459 -0.04653,0.009 -0.0039,0.0016 -0.0075,0.0029 -0.12075,0.0483 -0.2121,0.1155 c -0.24027,0.1365 -0.47781,0.44796 -0.555939,0.7509 -0.08208,0.2799 -0.07446,0.63555 0.0294,1.00656 0.22017,1.04409 0.18198,0.63066 0.14202,0.8658 -0.18318,0.53682 -0.365646,1.07244 -0.5481,1.60662 -0.07275,0.2142 -0.09333,0.41904 -0.08547,0.59289 0.0114,0.1791 0.0273,0.31179 0.08817,0.4761 0.05928,0.1617 0.16926,0.33507 0.300777,0.45924 0.1254,0.1191 0.23829,0.1722 0.391098,0.2502 0.08721,0.027 0.15921,0.0675 0.26109,0.0837 l 0.07221,0.015 c 0.05685,0.006 -0.07221,0.009 0.325743,0.018 l 0.37497,0.009 -0.12885,2.7e-4 -0.25812,2.4e-4 0.319842,0.002 0.329646,0.0016 0.432777,6.3e-4 -0.0867,6.6e-4 -0.447198,0.003 -0.0069,0.1233 -0.002,0.036 0.0045,0.2295 0.0078,0.4575 c 0.03822,2.38053 0.15969,4.90728 0.24591,7.75239 0.12663,6.70863 0.357552,13.19679 0.618651,19.73763 0.13371,3.2703 0.2679,6.55404 0.404097,9.88458 0.14058,3.67197 0.28311,7.39509 0.429327,11.20689 1.703847,0.0026 3.441954,0.003 5.198964,0.006 4.1118,-0.0016 7.723014,-0.1755 11.185809,-0.2694 2.528208,-0.0327 5.230545,0.0588 7.286073,0.0588 1.499852,-0.009 2.921052,-0.018 4.268092,-0.027 0.0328,-0.73176 0.0656,-1.4496 0.0985,-2.15643 0.0147,-0.44574 0.0304,-0.88386 0.0451,-1.31592 0.0249,-0.86403 0.0492,-1.70454 0.0725,-2.53482 -0.0943,2.13222 -0.17193,3.90609 -0.26256,5.95896 -1.15869,0.012 -2.48831,0.024 -4.015801,0.0381 -1.106748,0.006 -0.722487,-0.0537 0.12246,-0.1218 0.425163,-0.03 0.961741,-0.0648 1.483651,-0.1005 0.41907,-0.0312 1.29852,-0.0561 1.79621,-0.0699 0.11313,-0.006 0.23583,-0.006 0.3698,-0.003 0.0301,-0.43887 0.0992,-0.93483 0.16506,-1.46532 0.0261,-0.1944 0.0509,-0.38547 0.0752,-0.56328 0.018,-0.1632 0.0291,-0.3162 0.0285,-0.45357 0.0759,-1.36269 0.063,-2.61885 0.0933,-4.08414 -0.006,-0.62991 0.17631,-0.5469 0.17364,-0.86136 0.07,-1.99602 -0.0821,-3.54678 0.0406,-4.81839 0.0855,-0.96468 0.16239,-1.83633 0.23757,-2.68542 0.0406,-0.53781 0.0786,-1.07148 0.10359,-1.6404 0.005,-0.35367 0.01,-0.72054 0.0147,-1.08717 -0.0735,0.2865 -0.14943,0.38721 -0.22458,0.48 0.0475,-0.52431 0.11484,-1.26837 0.16335,-1.7925 -0.0485,0.52413 -0.11586,1.26819 -0.16335,1.7925 0.0751,-0.0927 0.15111,-0.1935 0.22458,-0.48 0.0389,-2.63133 0.11142,-5.66406 0.19002,-8.48346 l -0.0189,0.0366 c -0.0745,1.64775 -0.18147,3.25143 -0.39139,4.95405 0.0828,-0.73695 0.12957,-0.6429 0.0923,0.2004 -0.0431,0.2139 -0.0865,0.42885 -0.12957,0.6402 0.0304,-1.47018 0.0605,-2.93721 0.27381,-4.31877 0,0 -0.007,-0.63012 -0.0102,-0.94239 0.0527,-0.4629 0.10974,-0.43863 0.16509,-0.5334 0.0129,-0.32085 0.0267,-0.64608 0.0397,-0.9723 -0.13128,0.68034 -0.37229,2.83434 -0.37229,2.83434 z"
     style="fill:#ffffff;fill-rule:evenodd;stroke-width:1"
     id="path60"
     inkscape:connector-curvature="0" />
  <path
     d="m 102.55318,90.23442 c 0.009,-0.2247 0.0189,-0.50037 0.0294,-0.79326 -0.0683,1.06365 -0.13665,2.12805 -0.20571,3.19683 0.1227,-0.56085 0.1494,-1.48098 0.17631,-2.40357 z"
     style="fill:#ffffff;fill-rule:evenodd;stroke-width:1"
     id="path62"
     inkscape:connector-curvature="0" />
  <text
     x="49.634926"
     y="133.41739"
     id="text66"
     style="font-size:3.87099051px;stroke-width:1">
    <tspan
       font-size="29.0000"
       id="tspan64"
       style="font-size:9.35489368px;font-family:'Book Antiqua';fill:#1b1918;stroke-width:1">#yummy_by</tspan>
  </text>
</svg>
